<svg width="1067" height="400" viewBox="0 0 1067 400" fill="none" xmlns="http://www.w3.org/2000/svg">
<g clip-path="url(#clip0_201_340)">
<rect x="0.286865" width="1066.67" height="400" fill="#0E1027"/>
<g clip-path="url(#clip1_201_340)">
<mask id="mask0_201_340" style="mask-type:alpha" maskUnits="userSpaceOnUse" x="0" y="0" width="1069" height="478">
<path d="M1069 0H0V477.919H1069V0Z" fill="url(#paint0_radial_201_340)" fill-opacity="0.7"/>
</mask>
<g mask="url(#mask0_201_340)">
<g opacity="0.14">
<path d="M5.86866 0.6763H-23.4747V29.9827H5.86866V0.6763Z" stroke="#E2E7F0" stroke-width="1.5"/>
<path d="M35.212 0.6763H5.86866V29.9827H35.212V0.6763Z" stroke="#E2E7F0" stroke-width="1.5"/>
<path d="M64.5553 0.6763H35.212V29.9827H64.5553V0.6763Z" fill="#E2E7F0" fill-opacity="0.3" stroke="#E2E7F0" stroke-width="1.5"/>
<path d="M93.8986 0.6763H64.5553V29.9827H93.8986V0.6763Z" stroke="#E2E7F0" stroke-width="1.5"/>
<path d="M123.242 0.6763H93.8986V29.9827H123.242V0.6763Z" stroke="#E2E7F0" stroke-width="1.5"/>
<path d="M152.585 0.6763H123.242V29.9827H152.585V0.6763Z" stroke="#E2E7F0" stroke-width="1.5"/>
<path d="M181.929 0.6763H152.585V29.9827H181.929V0.6763Z" stroke="#E2E7F0" stroke-width="1.5"/>
<path d="M211.272 0.6763H181.929V29.9827H211.272V0.6763Z" stroke="#E2E7F0" stroke-width="1.5"/>
<path d="M240.615 0.6763H211.272V29.9827H240.615V0.6763Z" fill="#E2E7F0" fill-opacity="0.3" stroke="#E2E7F0" stroke-width="1.5"/>
<path d="M269.959 0.6763H240.615V29.9827H269.959V0.6763Z" stroke="#E2E7F0" stroke-width="1.5"/>
<path d="M299.302 0.6763H269.959V29.9827H299.302V0.6763Z" stroke="#E2E7F0" stroke-width="1.5"/>
<path d="M328.645 0.6763H299.302V29.9827H328.645V0.6763Z" stroke="#E2E7F0" stroke-width="1.5"/>
<path d="M357.989 0.6763H328.645V29.9827H357.989V0.6763Z" stroke="#E2E7F0" stroke-width="1.5"/>
<path d="M387.332 0.6763H357.989V29.9827H387.332V0.6763Z" stroke="#E2E7F0" stroke-width="1.5"/>
<path d="M416.675 0.6763H387.332V29.9827H416.675V0.6763Z" stroke="#E2E7F0" stroke-width="1.5"/>
<path d="M446.019 0.6763H416.675V29.9827H446.019V0.6763Z" stroke="#E2E7F0" stroke-width="1.5"/>
<path d="M475.362 0.6763H446.019V29.9827H475.362V0.6763Z" stroke="#E2E7F0" stroke-width="1.5"/>
<path d="M504.705 0.6763H475.362V29.9827H504.705V0.6763Z" stroke="#E2E7F0" stroke-width="1.5"/>
<path d="M534.049 0.6763H504.705V29.9827H534.049V0.6763Z" stroke="#E2E7F0" stroke-width="1.5"/>
<path d="M563.392 0.6763H534.049V29.9827H563.392V0.6763Z" stroke="#E2E7F0" stroke-width="1.5"/>
<path d="M592.735 0.6763H563.392V29.9827H592.735V0.6763Z" stroke="#E2E7F0" stroke-width="1.5"/>
<path d="M622.078 0.6763H592.735V29.9827H622.078V0.6763Z" stroke="#E2E7F0" stroke-width="1.5"/>
<path d="M651.422 0.6763H622.079V29.9827H651.422V0.6763Z" stroke="#E2E7F0" stroke-width="1.5"/>
<path d="M680.765 0.6763H651.422V29.9827H680.765V0.6763Z" stroke="#E2E7F0" stroke-width="1.5"/>
<path d="M710.109 0.6763H680.765V29.9827H710.109V0.6763Z" stroke="#E2E7F0" stroke-width="1.5"/>
<path d="M739.452 0.6763H710.109V29.9827H739.452V0.6763Z" fill="#E2E7F0" fill-opacity="0.3" stroke="#E2E7F0" stroke-width="1.5"/>
<path d="M768.795 0.6763H739.452V29.9827H768.795V0.6763Z" stroke="#E2E7F0" stroke-width="1.5"/>
<path d="M798.138 0.6763H768.795V29.9827H798.138V0.6763Z" stroke="#E2E7F0" stroke-width="1.5"/>
<path d="M827.482 0.6763H798.139V29.9827H827.482V0.6763Z" fill="#E2E7F0" fill-opacity="0.3" stroke="#E2E7F0" stroke-width="1.5"/>
<path d="M856.825 0.6763H827.482V29.9827H856.825V0.6763Z" stroke="#E2E7F0" stroke-width="1.5"/>
<path d="M886.168 0.6763H856.825V29.9827H886.168V0.6763Z" stroke="#E2E7F0" stroke-width="1.5"/>
<path d="M915.512 0.6763H886.168V29.9827H915.512V0.6763Z" stroke="#E2E7F0" stroke-width="1.5"/>
<path d="M944.855 0.6763H915.512V29.9827H944.855V0.6763Z" stroke="#E2E7F0" stroke-width="1.5"/>
<path d="M974.199 0.6763H944.855V29.9827H974.199V0.6763Z" stroke="#E2E7F0" stroke-width="1.5"/>
<path d="M1003.54 0.6763H974.198V29.9827H1003.54V0.6763Z" stroke="#E2E7F0" stroke-width="1.5"/>
<path d="M1032.89 0.6763H1003.54V29.9827H1032.89V0.6763Z" stroke="#E2E7F0" stroke-width="1.5"/>
<path d="M1062.23 0.6763H1032.89V29.9827H1062.23V0.6763Z" stroke="#E2E7F0" stroke-width="1.5"/>
<path d="M1091.57 0.6763H1062.23V29.9827H1091.57V0.6763Z" fill="#E2E7F0" fill-opacity="0.3" stroke="#E2E7F0" stroke-width="1.5"/>
<path d="M5.86866 29.9827H-23.4747V59.289H5.86866V29.9827Z" stroke="#E2E7F0" stroke-width="1.5"/>
<path d="M35.212 29.9827H5.86866V59.289H35.212V29.9827Z" stroke="#E2E7F0" stroke-width="1.5"/>
<path d="M64.5553 29.9827H35.212V59.289H64.5553V29.9827Z" stroke="#E2E7F0" stroke-width="1.5"/>
<path d="M93.8986 29.9827H64.5553V59.289H93.8986V29.9827Z" stroke="#E2E7F0" stroke-width="1.5"/>
<path d="M123.242 29.9827H93.8986V59.289H123.242V29.9827Z" stroke="#E2E7F0" stroke-width="1.5"/>
<path d="M152.585 29.9827H123.242V59.289H152.585V29.9827Z" stroke="#E2E7F0" stroke-width="1.5"/>
<path d="M181.929 29.9827H152.585V59.289H181.929V29.9827Z" fill="#E2E7F0" fill-opacity="0.3" stroke="#E2E7F0" stroke-width="1.5"/>
<path d="M211.272 29.9827H181.929V59.289H211.272V29.9827Z" stroke="#E2E7F0" stroke-width="1.5"/>
<path d="M240.615 29.9827H211.272V59.289H240.615V29.9827Z" stroke="#E2E7F0" stroke-width="1.5"/>
<path d="M269.959 29.9827H240.615V59.289H269.959V29.9827Z" stroke="#E2E7F0" stroke-width="1.5"/>
<path d="M299.302 29.9827H269.959V59.289H299.302V29.9827Z" stroke="#E2E7F0" stroke-width="1.5"/>
<path d="M328.645 29.9827H299.302V59.289H328.645V29.9827Z" stroke="#E2E7F0" stroke-width="1.5"/>
<path d="M357.989 29.9827H328.645V59.289H357.989V29.9827Z" stroke="#E2E7F0" stroke-width="1.5"/>
<path d="M387.332 29.9827H357.989V59.289H387.332V29.9827Z" stroke="#E2E7F0" stroke-width="1.5"/>
<path d="M416.675 29.9827H387.332V59.289H416.675V29.9827Z" stroke="#E2E7F0" stroke-width="1.5"/>
<path d="M446.019 29.9827H416.675V59.289H446.019V29.9827Z" stroke="#E2E7F0" stroke-width="1.5"/>
<path d="M475.362 29.9827H446.019V59.289H475.362V29.9827Z" stroke="#E2E7F0" stroke-width="1.5"/>
<path d="M504.705 29.9827H475.362V59.289H504.705V29.9827Z" stroke="#E2E7F0" stroke-width="1.5"/>
<path d="M534.049 29.9827H504.705V59.289H534.049V29.9827Z" stroke="#E2E7F0" stroke-width="1.5"/>
<path d="M563.392 29.9827H534.049V59.289H563.392V29.9827Z" stroke="#E2E7F0" stroke-width="1.5"/>
<path d="M592.735 29.9827H563.392V59.289H592.735V29.9827Z" stroke="#E2E7F0" stroke-width="1.5"/>
<path d="M622.078 29.9827H592.735V59.289H622.078V29.9827Z" stroke="#E2E7F0" stroke-width="1.5"/>
<path d="M651.422 29.9827H622.079V59.289H651.422V29.9827Z" stroke="#E2E7F0" stroke-width="1.5"/>
<path d="M680.765 29.9827H651.422V59.289H680.765V29.9827Z" stroke="#E2E7F0" stroke-width="1.5"/>
<path d="M710.109 29.9827H680.765V59.289H710.109V29.9827Z" stroke="#E2E7F0" stroke-width="1.5"/>
<path d="M739.452 29.9827H710.109V59.289H739.452V29.9827Z" stroke="#E2E7F0" stroke-width="1.5"/>
<path d="M768.795 29.9827H739.452V59.289H768.795V29.9827Z" stroke="#E2E7F0" stroke-width="1.5"/>
<path d="M798.138 29.9827H768.795V59.289H798.138V29.9827Z" stroke="#E2E7F0" stroke-width="1.5"/>
<path d="M827.482 29.9827H798.139V59.289H827.482V29.9827Z" stroke="#E2E7F0" stroke-width="1.5"/>
<path d="M856.825 29.9827H827.482V59.289H856.825V29.9827Z" stroke="#E2E7F0" stroke-width="1.5"/>
<path d="M886.168 29.9827H856.825V59.289H886.168V29.9827Z" stroke="#E2E7F0" stroke-width="1.5"/>
<path d="M915.512 29.9827H886.168V59.289H915.512V29.9827Z" stroke="#E2E7F0" stroke-width="1.5"/>
<path d="M944.855 29.9827H915.512V59.289H944.855V29.9827Z" fill="#E2E7F0" fill-opacity="0.3" stroke="#E2E7F0" stroke-width="1.5"/>
<path d="M974.199 29.9827H944.855V59.289H974.199V29.9827Z" stroke="#E2E7F0" stroke-width="1.5"/>
<path d="M1003.54 29.9827H974.198V59.289H1003.54V29.9827Z" stroke="#E2E7F0" stroke-width="1.5"/>
<path d="M1032.89 29.9827H1003.54V59.289H1032.89V29.9827Z" stroke="#E2E7F0" stroke-width="1.5"/>
<path d="M1062.23 29.9827H1032.89V59.289H1062.23V29.9827Z" stroke="#E2E7F0" stroke-width="1.5"/>
<path d="M1091.57 29.9827H1062.23V59.289H1091.57V29.9827Z" stroke="#E2E7F0" stroke-width="1.5"/>
<path d="M5.86866 59.289H-23.4747V88.5954H5.86866V59.289Z" stroke="#E2E7F0" stroke-width="1.5"/>
<path d="M35.212 59.289H5.86866V88.5954H35.212V59.289Z" stroke="#E2E7F0" stroke-width="1.5"/>
<path d="M64.5553 59.289H35.212V88.5954H64.5553V59.289Z" stroke="#E2E7F0" stroke-width="1.5"/>
<path d="M93.8986 59.289H64.5553V88.5954H93.8986V59.289Z" stroke="#E2E7F0" stroke-width="1.5"/>
<path d="M123.242 59.289H93.8986V88.5954H123.242V59.289Z" stroke="#E2E7F0" stroke-width="1.5"/>
<path d="M152.585 59.289H123.242V88.5954H152.585V59.289Z" stroke="#E2E7F0" stroke-width="1.5"/>
<path d="M181.929 59.289H152.585V88.5954H181.929V59.289Z" stroke="#E2E7F0" stroke-width="1.5"/>
<path d="M211.272 59.289H181.929V88.5954H211.272V59.289Z" stroke="#E2E7F0" stroke-width="1.5"/>
<path d="M240.615 59.289H211.272V88.5954H240.615V59.289Z" stroke="#E2E7F0" stroke-width="1.5"/>
<path d="M269.959 59.289H240.615V88.5954H269.959V59.289Z" stroke="#E2E7F0" stroke-width="1.5"/>
<path d="M299.302 59.289H269.959V88.5954H299.302V59.289Z" stroke="#E2E7F0" stroke-width="1.5"/>
<path d="M328.645 59.289H299.302V88.5954H328.645V59.289Z" stroke="#E2E7F0" stroke-width="1.5"/>
<path d="M357.989 59.289H328.645V88.5954H357.989V59.289Z" stroke="#E2E7F0" stroke-width="1.5"/>
<path d="M387.332 59.289H357.989V88.5954H387.332V59.289Z" stroke="#E2E7F0" stroke-width="1.5"/>
<path d="M416.675 59.289H387.332V88.5954H416.675V59.289Z" stroke="#E2E7F0" stroke-width="1.5"/>
<path d="M446.019 59.289H416.675V88.5954H446.019V59.289Z" stroke="#E2E7F0" stroke-width="1.5"/>
<path d="M475.362 59.289H446.019V88.5954H475.362V59.289Z" stroke="#E2E7F0" stroke-width="1.5"/>
<path d="M504.705 59.289H475.362V88.5954H504.705V59.289Z" stroke="#E2E7F0" stroke-width="1.5"/>
<path d="M534.049 59.289H504.705V88.5954H534.049V59.289Z" stroke="#E2E7F0" stroke-width="1.5"/>
<path d="M563.392 59.289H534.049V88.5954H563.392V59.289Z" stroke="#E2E7F0" stroke-width="1.5"/>
<path d="M592.735 59.289H563.392V88.5954H592.735V59.289Z" stroke="#E2E7F0" stroke-width="1.5"/>
<path d="M622.078 59.289H592.735V88.5954H622.078V59.289Z" stroke="#E2E7F0" stroke-width="1.5"/>
<path d="M651.422 59.289H622.079V88.5954H651.422V59.289Z" stroke="#E2E7F0" stroke-width="1.5"/>
<path d="M680.765 59.289H651.422V88.5954H680.765V59.289Z" stroke="#E2E7F0" stroke-width="1.5"/>
<path d="M710.109 59.289H680.765V88.5954H710.109V59.289Z" stroke="#E2E7F0" stroke-width="1.5"/>
<path d="M739.452 59.289H710.109V88.5954H739.452V59.289Z" stroke="#E2E7F0" stroke-width="1.5"/>
<path d="M768.795 59.289H739.452V88.5954H768.795V59.289Z" stroke="#E2E7F0" stroke-width="1.5"/>
<path d="M798.138 59.289H768.795V88.5954H798.138V59.289Z" stroke="#E2E7F0" stroke-width="1.5"/>
<path d="M827.482 59.289H798.139V88.5954H827.482V59.289Z" stroke="#E2E7F0" stroke-width="1.5"/>
<path d="M856.825 59.289H827.482V88.5954H856.825V59.289Z" stroke="#E2E7F0" stroke-width="1.5"/>
<path d="M886.168 59.289H856.825V88.5954H886.168V59.289Z" stroke="#E2E7F0" stroke-width="1.5"/>
<path d="M915.512 59.289H886.168V88.5954H915.512V59.289Z" stroke="#E2E7F0" stroke-width="1.5"/>
<path d="M944.855 59.289H915.512V88.5954H944.855V59.289Z" stroke="#E2E7F0" stroke-width="1.5"/>
<path d="M974.199 59.289H944.855V88.5954H974.199V59.289Z" stroke="#E2E7F0" stroke-width="1.5"/>
<path d="M1003.54 59.289H974.198V88.5954H1003.54V59.289Z" stroke="#E2E7F0" stroke-width="1.5"/>
<path d="M1032.89 59.289H1003.54V88.5954H1032.89V59.289Z" stroke="#E2E7F0" stroke-width="1.5"/>
<path d="M1062.23 59.289H1032.89V88.5954H1062.23V59.289Z" stroke="#E2E7F0" stroke-width="1.5"/>
<path d="M1091.57 59.289H1062.23V88.5954H1091.57V59.289Z" stroke="#E2E7F0" stroke-width="1.5"/>
<path d="M5.86866 88.5954H-23.4747V117.902H5.86866V88.5954Z" stroke="#E2E7F0" stroke-width="1.5"/>
<path d="M35.212 88.5954H5.86866V117.902H35.212V88.5954Z" stroke="#E2E7F0" stroke-width="1.5"/>
<path d="M64.5553 88.5954H35.212V117.902H64.5553V88.5954Z" stroke="#E2E7F0" stroke-width="1.5"/>
<path d="M93.8986 88.5954H64.5553V117.902H93.8986V88.5954Z" stroke="#E2E7F0" stroke-width="1.5"/>
<path d="M123.242 88.5954H93.8986V117.902H123.242V88.5954Z" stroke="#E2E7F0" stroke-width="1.5"/>
<path d="M152.585 88.5954H123.242V117.902H152.585V88.5954Z" stroke="#E2E7F0" stroke-width="1.5"/>
<path d="M181.929 88.5954H152.585V117.902H181.929V88.5954Z" stroke="#E2E7F0" stroke-width="1.5"/>
<path d="M211.272 88.5954H181.929V117.902H211.272V88.5954Z" stroke="#E2E7F0" stroke-width="1.5"/>
<path d="M240.615 88.5954H211.272V117.902H240.615V88.5954Z" stroke="#E2E7F0" stroke-width="1.5"/>
<path d="M269.959 88.5954H240.615V117.902H269.959V88.5954Z" stroke="#E2E7F0" stroke-width="1.5"/>
<path d="M299.302 88.5954H269.959V117.902H299.302V88.5954Z" stroke="#E2E7F0" stroke-width="1.5"/>
<path d="M328.645 88.5954H299.302V117.902H328.645V88.5954Z" stroke="#E2E7F0" stroke-width="1.5"/>
<path d="M357.989 88.5954H328.645V117.902H357.989V88.5954Z" stroke="#E2E7F0" stroke-width="1.5"/>
<path d="M387.332 88.5954H357.989V117.902H387.332V88.5954Z" stroke="#E2E7F0" stroke-width="1.5"/>
<path d="M416.675 88.5954H387.332V117.902H416.675V88.5954Z" stroke="#E2E7F0" stroke-width="1.5"/>
<path d="M446.019 88.5954H416.675V117.902H446.019V88.5954Z" stroke="#E2E7F0" stroke-width="1.5"/>
<path d="M475.362 88.5954H446.019V117.902H475.362V88.5954Z" stroke="#E2E7F0" stroke-width="1.5"/>
<path d="M504.705 88.5954H475.362V117.902H504.705V88.5954Z" stroke="#E2E7F0" stroke-width="1.5"/>
<path d="M534.049 88.5954H504.705V117.902H534.049V88.5954Z" stroke="#E2E7F0" stroke-width="1.5"/>
<path d="M563.392 88.5954H534.049V117.902H563.392V88.5954Z" stroke="#E2E7F0" stroke-width="1.5"/>
<path d="M592.735 88.5954H563.392V117.902H592.735V88.5954Z" stroke="#E2E7F0" stroke-width="1.5"/>
<path d="M622.078 88.5954H592.735V117.902H622.078V88.5954Z" stroke="#E2E7F0" stroke-width="1.5"/>
<path d="M651.422 88.5954H622.079V117.902H651.422V88.5954Z" stroke="#E2E7F0" stroke-width="1.5"/>
<path d="M680.765 88.5954H651.422V117.902H680.765V88.5954Z" stroke="#E2E7F0" stroke-width="1.5"/>
<path d="M710.109 88.5954H680.765V117.902H710.109V88.5954Z" stroke="#E2E7F0" stroke-width="1.5"/>
<path d="M739.452 88.5954H710.109V117.902H739.452V88.5954Z" stroke="#E2E7F0" stroke-width="1.5"/>
<path d="M768.795 88.5954H739.452V117.902H768.795V88.5954Z" stroke="#E2E7F0" stroke-width="1.5"/>
<path d="M798.138 88.5954H768.795V117.902H798.138V88.5954Z" stroke="#E2E7F0" stroke-width="1.5"/>
<path d="M827.482 88.5954H798.139V117.902H827.482V88.5954Z" stroke="#E2E7F0" stroke-width="1.5"/>
<path d="M856.825 88.5954H827.482V117.902H856.825V88.5954Z" fill="#E2E7F0" fill-opacity="0.3" stroke="#E2E7F0" stroke-width="1.5"/>
<path d="M886.168 88.5954H856.825V117.902H886.168V88.5954Z" stroke="#E2E7F0" stroke-width="1.5"/>
<path d="M915.512 88.5954H886.168V117.902H915.512V88.5954Z" stroke="#E2E7F0" stroke-width="1.5"/>
<path d="M944.855 88.5954H915.512V117.902H944.855V88.5954Z" stroke="#E2E7F0" stroke-width="1.5"/>
<path d="M974.199 88.5954H944.855V117.902H974.199V88.5954Z" stroke="#E2E7F0" stroke-width="1.5"/>
<path d="M1003.54 88.5954H974.198V117.902H1003.54V88.5954Z" fill="#E2E7F0" fill-opacity="0.3" stroke="#E2E7F0" stroke-width="1.5"/>
<path d="M1032.89 88.5954H1003.54V117.902H1032.89V88.5954Z" stroke="#E2E7F0" stroke-width="1.5"/>
<path d="M1062.23 88.5954H1032.89V117.902H1062.23V88.5954Z" stroke="#E2E7F0" stroke-width="1.5"/>
<path d="M1091.57 88.5954H1062.23V117.902H1091.57V88.5954Z" fill="#E2E7F0" fill-opacity="0.3" stroke="#E2E7F0" stroke-width="1.5"/>
<path d="M5.86866 117.902H-23.4747V147.208H5.86866V117.902Z" stroke="#E2E7F0" stroke-width="1.5"/>
<path d="M35.212 117.902H5.86866V147.208H35.212V117.902Z" fill="#E2E7F0" fill-opacity="0.3" stroke="#E2E7F0" stroke-width="1.5"/>
<path d="M64.5553 117.902H35.212V147.208H64.5553V117.902Z" stroke="#E2E7F0" stroke-width="1.5"/>
<path d="M93.8986 117.902H64.5553V147.208H93.8986V117.902Z" stroke="#E2E7F0" stroke-width="1.5"/>
<path d="M123.242 117.902H93.8986V147.208H123.242V117.902Z" stroke="#E2E7F0" stroke-width="1.5"/>
<path d="M152.585 117.902H123.242V147.208H152.585V117.902Z" stroke="#E2E7F0" stroke-width="1.5"/>
<path d="M181.929 117.902H152.585V147.208H181.929V117.902Z" fill="#E2E7F0" fill-opacity="0.3" stroke="#E2E7F0" stroke-width="1.5"/>
<path d="M211.272 117.902H181.929V147.208H211.272V117.902Z" stroke="#E2E7F0" stroke-width="1.5"/>
<path d="M240.615 117.902H211.272V147.208H240.615V117.902Z" stroke="#E2E7F0" stroke-width="1.5"/>
<path d="M269.959 117.902H240.615V147.208H269.959V117.902Z" stroke="#E2E7F0" stroke-width="1.5"/>
<path d="M299.302 117.902H269.959V147.208H299.302V117.902Z" stroke="#E2E7F0" stroke-width="1.5"/>
<path d="M328.645 117.902H299.302V147.208H328.645V117.902Z" stroke="#E2E7F0" stroke-width="1.5"/>
<path d="M357.989 117.902H328.645V147.208H357.989V117.902Z" stroke="#E2E7F0" stroke-width="1.5"/>
<path d="M387.332 117.902H357.989V147.208H387.332V117.902Z" stroke="#E2E7F0" stroke-width="1.5"/>
<path d="M416.675 117.902H387.332V147.208H416.675V117.902Z" stroke="#E2E7F0" stroke-width="1.5"/>
<path d="M446.019 117.902H416.675V147.208H446.019V117.902Z" stroke="#E2E7F0" stroke-width="1.5"/>
<path d="M475.362 117.902H446.019V147.208H475.362V117.902Z" stroke="#E2E7F0" stroke-width="1.5"/>
<path d="M504.705 117.902H475.362V147.208H504.705V117.902Z" stroke="#E2E7F0" stroke-width="1.5"/>
<path d="M534.049 117.902H504.705V147.208H534.049V117.902Z" stroke="#E2E7F0" stroke-width="1.5"/>
<path d="M563.392 117.902H534.049V147.208H563.392V117.902Z" stroke="#E2E7F0" stroke-width="1.5"/>
<path d="M592.735 117.902H563.392V147.208H592.735V117.902Z" stroke="#E2E7F0" stroke-width="1.5"/>
<path d="M622.078 117.902H592.735V147.208H622.078V117.902Z" stroke="#E2E7F0" stroke-width="1.5"/>
<path d="M651.422 117.902H622.079V147.208H651.422V117.902Z" stroke="#E2E7F0" stroke-width="1.5"/>
<path d="M680.765 117.902H651.422V147.208H680.765V117.902Z" stroke="#E2E7F0" stroke-width="1.5"/>
<path d="M710.109 117.902H680.765V147.208H710.109V117.902Z" stroke="#E2E7F0" stroke-width="1.5"/>
<path d="M739.452 117.902H710.109V147.208H739.452V117.902Z" stroke="#E2E7F0" stroke-width="1.5"/>
<path d="M768.795 117.902H739.452V147.208H768.795V117.902Z" stroke="#E2E7F0" stroke-width="1.5"/>
<path d="M798.138 117.902H768.795V147.208H798.138V117.902Z" stroke="#E2E7F0" stroke-width="1.5"/>
<path d="M827.482 117.902H798.139V147.208H827.482V117.902Z" stroke="#E2E7F0" stroke-width="1.5"/>
<path d="M856.825 117.902H827.482V147.208H856.825V117.902Z" stroke="#E2E7F0" stroke-width="1.5"/>
<path d="M886.168 117.902H856.825V147.208H886.168V117.902Z" stroke="#E2E7F0" stroke-width="1.5"/>
<path d="M915.512 117.902H886.168V147.208H915.512V117.902Z" stroke="#E2E7F0" stroke-width="1.5"/>
<path d="M944.855 117.902H915.512V147.208H944.855V117.902Z" stroke="#E2E7F0" stroke-width="1.5"/>
<path d="M974.199 117.902H944.855V147.208H974.199V117.902Z" stroke="#E2E7F0" stroke-width="1.5"/>
<path d="M1003.54 117.902H974.198V147.208H1003.54V117.902Z" stroke="#E2E7F0" stroke-width="1.5"/>
<path d="M1032.89 117.902H1003.54V147.208H1032.89V117.902Z" stroke="#E2E7F0" stroke-width="1.5"/>
<path d="M1062.23 117.902H1032.89V147.208H1062.23V117.902Z" stroke="#E2E7F0" stroke-width="1.5"/>
<path d="M1091.57 117.902H1062.23V147.208H1091.57V117.902Z" stroke="#E2E7F0" stroke-width="1.5"/>
<path d="M5.86866 147.208H-23.4747V176.514H5.86866V147.208Z" stroke="#E2E7F0" stroke-width="1.5"/>
<path d="M35.212 147.208H5.86866V176.514H35.212V147.208Z" stroke="#E2E7F0" stroke-width="1.5"/>
<path d="M64.5553 147.208H35.212V176.514H64.5553V147.208Z" stroke="#E2E7F0" stroke-width="1.5"/>
<path d="M93.8986 147.208H64.5553V176.514H93.8986V147.208Z" stroke="#E2E7F0" stroke-width="1.5"/>
<path d="M123.242 147.208H93.8986V176.514H123.242V147.208Z" stroke="#E2E7F0" stroke-width="1.5"/>
<path d="M152.585 147.208H123.242V176.514H152.585V147.208Z" stroke="#E2E7F0" stroke-width="1.5"/>
<path d="M181.929 147.208H152.585V176.514H181.929V147.208Z" stroke="#E2E7F0" stroke-width="1.5"/>
<path d="M211.272 147.208H181.929V176.514H211.272V147.208Z" stroke="#E2E7F0" stroke-width="1.5"/>
<path d="M240.615 147.208H211.272V176.514H240.615V147.208Z" stroke="#E2E7F0" stroke-width="1.5"/>
<path d="M269.959 147.208H240.615V176.514H269.959V147.208Z" stroke="#E2E7F0" stroke-width="1.5"/>
<path d="M299.302 147.208H269.959V176.514H299.302V147.208Z" stroke="#E2E7F0" stroke-width="1.5"/>
<path d="M328.645 147.208H299.302V176.514H328.645V147.208Z" stroke="#E2E7F0" stroke-width="1.5"/>
<path d="M357.989 147.208H328.645V176.514H357.989V147.208Z" stroke="#E2E7F0" stroke-width="1.5"/>
<path d="M387.332 147.208H357.989V176.514H387.332V147.208Z" stroke="#E2E7F0" stroke-width="1.5"/>
<path d="M416.675 147.208H387.332V176.514H416.675V147.208Z" stroke="#E2E7F0" stroke-width="1.5"/>
<path d="M446.019 147.208H416.675V176.514H446.019V147.208Z" stroke="#E2E7F0" stroke-width="1.5"/>
<path d="M475.362 147.208H446.019V176.514H475.362V147.208Z" stroke="#E2E7F0" stroke-width="1.5"/>
<path d="M504.705 147.208H475.362V176.514H504.705V147.208Z" stroke="#E2E7F0" stroke-width="1.5"/>
<path d="M534.049 147.208H504.705V176.514H534.049V147.208Z" stroke="#E2E7F0" stroke-width="1.5"/>
<path d="M563.392 147.208H534.049V176.514H563.392V147.208Z" stroke="#E2E7F0" stroke-width="1.5"/>
<path d="M592.735 147.208H563.392V176.514H592.735V147.208Z" stroke="#E2E7F0" stroke-width="1.5"/>
<path d="M622.078 147.208H592.735V176.514H622.078V147.208Z" stroke="#E2E7F0" stroke-width="1.5"/>
<path d="M651.422 147.208H622.079V176.514H651.422V147.208Z" stroke="#E2E7F0" stroke-width="1.5"/>
<path d="M680.765 147.208H651.422V176.514H680.765V147.208Z" stroke="#E2E7F0" stroke-width="1.5"/>
<path d="M710.109 147.208H680.765V176.514H710.109V147.208Z" stroke="#E2E7F0" stroke-width="1.5"/>
<path d="M739.452 147.208H710.109V176.514H739.452V147.208Z" stroke="#E2E7F0" stroke-width="1.5"/>
<path d="M768.795 147.208H739.452V176.514H768.795V147.208Z" stroke="#E2E7F0" stroke-width="1.5"/>
<path d="M798.138 147.208H768.795V176.514H798.138V147.208Z" stroke="#E2E7F0" stroke-width="1.5"/>
<path d="M827.482 147.208H798.139V176.514H827.482V147.208Z" stroke="#E2E7F0" stroke-width="1.5"/>
<path d="M856.825 147.208H827.482V176.514H856.825V147.208Z" fill="#E2E7F0" fill-opacity="0.3" stroke="#E2E7F0" stroke-width="1.5"/>
<path d="M886.168 147.208H856.825V176.514H886.168V147.208Z" stroke="#E2E7F0" stroke-width="1.5"/>
<path d="M915.512 147.208H886.168V176.514H915.512V147.208Z" stroke="#E2E7F0" stroke-width="1.5"/>
<path d="M944.855 147.208H915.512V176.514H944.855V147.208Z" stroke="#E2E7F0" stroke-width="1.5"/>
<path d="M974.199 147.208H944.855V176.514H974.199V147.208Z" stroke="#E2E7F0" stroke-width="1.5"/>
<path d="M1003.54 147.208H974.198V176.514H1003.54V147.208Z" stroke="#E2E7F0" stroke-width="1.5"/>
<path d="M1032.89 147.208H1003.54V176.514H1032.89V147.208Z" stroke="#E2E7F0" stroke-width="1.5"/>
<path d="M1062.23 147.208H1032.89V176.514H1062.23V147.208Z" stroke="#E2E7F0" stroke-width="1.5"/>
<path d="M1091.57 147.208H1062.23V176.514H1091.57V147.208Z" stroke="#E2E7F0" stroke-width="1.5"/>
<path d="M5.86866 176.514H-23.4747V205.821H5.86866V176.514Z" stroke="#E2E7F0" stroke-width="1.5"/>
<path d="M35.212 176.514H5.86866V205.821H35.212V176.514Z" stroke="#E2E7F0" stroke-width="1.5"/>
<path d="M64.5553 176.514H35.212V205.821H64.5553V176.514Z" stroke="#E2E7F0" stroke-width="1.5"/>
<path d="M93.8986 176.514H64.5553V205.821H93.8986V176.514Z" stroke="#E2E7F0" stroke-width="1.5"/>
<path d="M123.242 176.514H93.8986V205.821H123.242V176.514Z" stroke="#E2E7F0" stroke-width="1.5"/>
<path d="M152.585 176.514H123.242V205.821H152.585V176.514Z" stroke="#E2E7F0" stroke-width="1.5"/>
<path d="M181.929 176.514H152.585V205.821H181.929V176.514Z" stroke="#E2E7F0" stroke-width="1.5"/>
<path d="M211.272 176.514H181.929V205.821H211.272V176.514Z" stroke="#E2E7F0" stroke-width="1.5"/>
<path d="M240.615 176.514H211.272V205.821H240.615V176.514Z" stroke="#E2E7F0" stroke-width="1.5"/>
<path d="M269.959 176.514H240.615V205.821H269.959V176.514Z" stroke="#E2E7F0" stroke-width="1.5"/>
<path d="M299.302 176.514H269.959V205.821H299.302V176.514Z" stroke="#E2E7F0" stroke-width="1.5"/>
<path d="M328.645 176.514H299.302V205.821H328.645V176.514Z" stroke="#E2E7F0" stroke-width="1.5"/>
<path d="M357.989 176.514H328.645V205.821H357.989V176.514Z" stroke="#E2E7F0" stroke-width="1.5"/>
<path d="M387.332 176.514H357.989V205.821H387.332V176.514Z" stroke="#E2E7F0" stroke-width="1.5"/>
<path d="M416.675 176.514H387.332V205.821H416.675V176.514Z" stroke="#E2E7F0" stroke-width="1.5"/>
<path d="M446.019 176.514H416.675V205.821H446.019V176.514Z" stroke="#E2E7F0" stroke-width="1.5"/>
<path d="M475.362 176.514H446.019V205.821H475.362V176.514Z" stroke="#E2E7F0" stroke-width="1.5"/>
<path d="M504.705 176.514H475.362V205.821H504.705V176.514Z" stroke="#E2E7F0" stroke-width="1.5"/>
<path d="M534.049 176.514H504.705V205.821H534.049V176.514Z" stroke="#E2E7F0" stroke-width="1.5"/>
<path d="M563.392 176.514H534.049V205.821H563.392V176.514Z" stroke="#E2E7F0" stroke-width="1.5"/>
<path d="M592.735 176.514H563.392V205.821H592.735V176.514Z" stroke="#E2E7F0" stroke-width="1.5"/>
<path d="M622.078 176.514H592.735V205.821H622.078V176.514Z" stroke="#E2E7F0" stroke-width="1.5"/>
<path d="M651.422 176.514H622.079V205.821H651.422V176.514Z" stroke="#E2E7F0" stroke-width="1.5"/>
<path d="M680.765 176.514H651.422V205.821H680.765V176.514Z" stroke="#E2E7F0" stroke-width="1.5"/>
<path d="M710.109 176.514H680.765V205.821H710.109V176.514Z" stroke="#E2E7F0" stroke-width="1.5"/>
<path d="M739.452 176.514H710.109V205.821H739.452V176.514Z" stroke="#E2E7F0" stroke-width="1.5"/>
<path d="M768.795 176.514H739.452V205.821H768.795V176.514Z" stroke="#E2E7F0" stroke-width="1.5"/>
<path d="M798.138 176.514H768.795V205.821H798.138V176.514Z" stroke="#E2E7F0" stroke-width="1.5"/>
<path d="M827.482 176.514H798.139V205.821H827.482V176.514Z" stroke="#E2E7F0" stroke-width="1.5"/>
<path d="M856.825 176.514H827.482V205.821H856.825V176.514Z" stroke="#E2E7F0" stroke-width="1.5"/>
<path d="M886.168 176.514H856.825V205.821H886.168V176.514Z" stroke="#E2E7F0" stroke-width="1.5"/>
<path d="M915.512 176.514H886.168V205.821H915.512V176.514Z" stroke="#E2E7F0" stroke-width="1.5"/>
<path d="M944.855 176.514H915.512V205.821H944.855V176.514Z" stroke="#E2E7F0" stroke-width="1.5"/>
<path d="M974.199 176.514H944.855V205.821H974.199V176.514Z" stroke="#E2E7F0" stroke-width="1.5"/>
<path d="M1003.54 176.514H974.198V205.821H1003.54V176.514Z" fill="#E2E7F0" fill-opacity="0.3" stroke="#E2E7F0" stroke-width="1.5"/>
<path d="M1032.89 176.514H1003.54V205.821H1032.89V176.514Z" stroke="#E2E7F0" stroke-width="1.5"/>
<path d="M1062.23 176.514H1032.89V205.821H1062.23V176.514Z" stroke="#E2E7F0" stroke-width="1.5"/>
<path d="M1091.57 176.514H1062.23V205.821H1091.57V176.514Z" stroke="#E2E7F0" stroke-width="1.5"/>
<path d="M5.86866 205.821H-23.4747V235.127H5.86866V205.821Z" fill="#E2E7F0" fill-opacity="0.3" stroke="#E2E7F0" stroke-width="1.5"/>
<path d="M35.212 205.821H5.86866V235.127H35.212V205.821Z" stroke="#E2E7F0" stroke-width="1.5"/>
<path d="M64.5553 205.821H35.212V235.127H64.5553V205.821Z" stroke="#E2E7F0" stroke-width="1.5"/>
<path d="M93.8986 205.821H64.5553V235.127H93.8986V205.821Z" stroke="#E2E7F0" stroke-width="1.5"/>
<path d="M123.242 205.821H93.8986V235.127H123.242V205.821Z" stroke="#E2E7F0" stroke-width="1.5"/>
<path d="M152.585 205.821H123.242V235.127H152.585V205.821Z" stroke="#E2E7F0" stroke-width="1.5"/>
<path d="M181.929 205.821H152.585V235.127H181.929V205.821Z" fill="#E2E7F0" fill-opacity="0.3" stroke="#E2E7F0" stroke-width="1.5"/>
<path d="M211.272 205.821H181.929V235.127H211.272V205.821Z" stroke="#E2E7F0" stroke-width="1.5"/>
<path d="M240.615 205.821H211.272V235.127H240.615V205.821Z" stroke="#E2E7F0" stroke-width="1.5"/>
<path d="M269.959 205.821H240.615V235.127H269.959V205.821Z" stroke="#E2E7F0" stroke-width="1.5"/>
<path d="M299.302 205.821H269.959V235.127H299.302V205.821Z" stroke="#E2E7F0" stroke-width="1.5"/>
<path d="M328.645 205.821H299.302V235.127H328.645V205.821Z" stroke="#E2E7F0" stroke-width="1.5"/>
<path d="M357.989 205.821H328.645V235.127H357.989V205.821Z" stroke="#E2E7F0" stroke-width="1.5"/>
<path d="M387.332 205.821H357.989V235.127H387.332V205.821Z" stroke="#E2E7F0" stroke-width="1.5"/>
<path d="M416.675 205.821H387.332V235.127H416.675V205.821Z" stroke="#E2E7F0" stroke-width="1.5"/>
<path d="M446.019 205.821H416.675V235.127H446.019V205.821Z" stroke="#E2E7F0" stroke-width="1.5"/>
<path d="M475.362 205.821H446.019V235.127H475.362V205.821Z" stroke="#E2E7F0" stroke-width="1.5"/>
<path d="M504.705 205.821H475.362V235.127H504.705V205.821Z" stroke="#E2E7F0" stroke-width="1.5"/>
<path d="M534.049 205.821H504.705V235.127H534.049V205.821Z" stroke="#E2E7F0" stroke-width="1.5"/>
<path d="M563.392 205.821H534.049V235.127H563.392V205.821Z" stroke="#E2E7F0" stroke-width="1.5"/>
<path d="M592.735 205.821H563.392V235.127H592.735V205.821Z" stroke="#E2E7F0" stroke-width="1.5"/>
<path d="M622.078 205.821H592.735V235.127H622.078V205.821Z" stroke="#E2E7F0" stroke-width="1.5"/>
<path d="M651.422 205.821H622.079V235.127H651.422V205.821Z" stroke="#E2E7F0" stroke-width="1.5"/>
<path d="M680.765 205.821H651.422V235.127H680.765V205.821Z" stroke="#E2E7F0" stroke-width="1.5"/>
<path d="M710.109 205.821H680.765V235.127H710.109V205.821Z" stroke="#E2E7F0" stroke-width="1.5"/>
<path d="M739.452 205.821H710.109V235.127H739.452V205.821Z" stroke="#E2E7F0" stroke-width="1.5"/>
<path d="M768.795 205.821H739.452V235.127H768.795V205.821Z" stroke="#E2E7F0" stroke-width="1.5"/>
<path d="M798.138 205.821H768.795V235.127H798.138V205.821Z" stroke="#E2E7F0" stroke-width="1.5"/>
<path d="M827.482 205.821H798.139V235.127H827.482V205.821Z" stroke="#E2E7F0" stroke-width="1.5"/>
<path d="M856.825 205.821H827.482V235.127H856.825V205.821Z" stroke="#E2E7F0" stroke-width="1.5"/>
<path d="M886.168 205.821H856.825V235.127H886.168V205.821Z" fill="#E2E7F0" fill-opacity="0.3" stroke="#E2E7F0" stroke-width="1.5"/>
<path d="M915.512 205.821H886.168V235.127H915.512V205.821Z" stroke="#E2E7F0" stroke-width="1.5"/>
<path d="M944.855 205.821H915.512V235.127H944.855V205.821Z" stroke="#E2E7F0" stroke-width="1.5"/>
<path d="M974.199 205.821H944.855V235.127H974.199V205.821Z" stroke="#E2E7F0" stroke-width="1.5"/>
<path d="M1003.54 205.821H974.198V235.127H1003.54V205.821Z" stroke="#E2E7F0" stroke-width="1.5"/>
<path d="M1032.89 205.821H1003.54V235.127H1032.89V205.821Z" stroke="#E2E7F0" stroke-width="1.5"/>
<path d="M1062.23 205.821H1032.89V235.127H1062.23V205.821Z" stroke="#E2E7F0" stroke-width="1.5"/>
<path d="M1091.57 205.821H1062.23V235.127H1091.57V205.821Z" stroke="#E2E7F0" stroke-width="1.5"/>
<path d="M5.86866 235.127H-23.4747V264.434H5.86866V235.127Z" stroke="#E2E7F0" stroke-width="1.5"/>
<path d="M35.212 235.127H5.86866V264.434H35.212V235.127Z" stroke="#E2E7F0" stroke-width="1.5"/>
<path d="M64.5553 235.127H35.212V264.434H64.5553V235.127Z" stroke="#E2E7F0" stroke-width="1.5"/>
<path d="M93.8986 235.127H64.5553V264.434H93.8986V235.127Z" stroke="#E2E7F0" stroke-width="1.5"/>
<path d="M123.242 235.127H93.8986V264.434H123.242V235.127Z" stroke="#E2E7F0" stroke-width="1.5"/>
<path d="M152.585 235.127H123.242V264.434H152.585V235.127Z" fill="#E2E7F0" fill-opacity="0.3" stroke="#E2E7F0" stroke-width="1.5"/>
<path d="M181.929 235.127H152.585V264.434H181.929V235.127Z" stroke="#E2E7F0" stroke-width="1.5"/>
<path d="M211.272 235.127H181.929V264.434H211.272V235.127Z" stroke="#E2E7F0" stroke-width="1.5"/>
<path d="M240.615 235.127H211.272V264.434H240.615V235.127Z" stroke="#E2E7F0" stroke-width="1.5"/>
<path d="M269.959 235.127H240.615V264.434H269.959V235.127Z" stroke="#E2E7F0" stroke-width="1.5"/>
<path d="M299.302 235.127H269.959V264.434H299.302V235.127Z" stroke="#E2E7F0" stroke-width="1.5"/>
<path d="M328.645 235.127H299.302V264.434H328.645V235.127Z" stroke="#E2E7F0" stroke-width="1.5"/>
<path d="M357.989 235.127H328.645V264.434H357.989V235.127Z" stroke="#E2E7F0" stroke-width="1.5"/>
<path d="M387.332 235.127H357.989V264.434H387.332V235.127Z" stroke="#E2E7F0" stroke-width="1.5"/>
<path d="M416.675 235.127H387.332V264.434H416.675V235.127Z" stroke="#E2E7F0" stroke-width="1.5"/>
<path d="M446.019 235.127H416.675V264.434H446.019V235.127Z" stroke="#E2E7F0" stroke-width="1.5"/>
<path d="M475.362 235.127H446.019V264.434H475.362V235.127Z" stroke="#E2E7F0" stroke-width="1.5"/>
<path d="M504.705 235.127H475.362V264.434H504.705V235.127Z" stroke="#E2E7F0" stroke-width="1.5"/>
<path d="M534.049 235.127H504.705V264.434H534.049V235.127Z" stroke="#E2E7F0" stroke-width="1.5"/>
<path d="M563.392 235.127H534.049V264.434H563.392V235.127Z" stroke="#E2E7F0" stroke-width="1.5"/>
<path d="M592.735 235.127H563.392V264.434H592.735V235.127Z" stroke="#E2E7F0" stroke-width="1.5"/>
<path d="M622.078 235.127H592.735V264.434H622.078V235.127Z" stroke="#E2E7F0" stroke-width="1.5"/>
<path d="M651.422 235.127H622.079V264.434H651.422V235.127Z" stroke="#E2E7F0" stroke-width="1.5"/>
<path d="M680.765 235.127H651.422V264.434H680.765V235.127Z" stroke="#E2E7F0" stroke-width="1.5"/>
<path d="M710.109 235.127H680.765V264.434H710.109V235.127Z" stroke="#E2E7F0" stroke-width="1.5"/>
<path d="M739.452 235.127H710.109V264.434H739.452V235.127Z" stroke="#E2E7F0" stroke-width="1.5"/>
<path d="M768.795 235.127H739.452V264.434H768.795V235.127Z" stroke="#E2E7F0" stroke-width="1.5"/>
<path d="M798.138 235.127H768.795V264.434H798.138V235.127Z" stroke="#E2E7F0" stroke-width="1.5"/>
<path d="M827.482 235.127H798.139V264.434H827.482V235.127Z" stroke="#E2E7F0" stroke-width="1.5"/>
<path d="M856.825 235.127H827.482V264.434H856.825V235.127Z" stroke="#E2E7F0" stroke-width="1.5"/>
<path d="M886.168 235.127H856.825V264.434H886.168V235.127Z" stroke="#E2E7F0" stroke-width="1.5"/>
<path d="M915.512 235.127H886.168V264.434H915.512V235.127Z" stroke="#E2E7F0" stroke-width="1.5"/>
<path d="M944.855 235.127H915.512V264.434H944.855V235.127Z" stroke="#E2E7F0" stroke-width="1.5"/>
<path d="M974.199 235.127H944.855V264.434H974.199V235.127Z" stroke="#E2E7F0" stroke-width="1.5"/>
<path d="M1003.54 235.127H974.198V264.434H1003.54V235.127Z" stroke="#E2E7F0" stroke-width="1.5"/>
<path d="M1032.89 235.127H1003.54V264.434H1032.89V235.127Z" stroke="#E2E7F0" stroke-width="1.5"/>
<path d="M1062.23 235.127H1032.89V264.434H1062.23V235.127Z" stroke="#E2E7F0" stroke-width="1.5"/>
<path d="M1091.57 235.127H1062.23V264.434H1091.57V235.127Z" stroke="#E2E7F0" stroke-width="1.5"/>
<path d="M5.86866 264.434H-23.4747V293.74H5.86866V264.434Z" stroke="#E2E7F0" stroke-width="1.5"/>
<path d="M35.212 264.434H5.86866V293.74H35.212V264.434Z" stroke="#E2E7F0" stroke-width="1.5"/>
<path d="M64.5553 264.434H35.212V293.74H64.5553V264.434Z" stroke="#E2E7F0" stroke-width="1.5"/>
<path d="M93.8986 264.434H64.5553V293.74H93.8986V264.434Z" fill="#E2E7F0" fill-opacity="0.3" stroke="#E2E7F0" stroke-width="1.5"/>
<path d="M123.242 264.434H93.8986V293.74H123.242V264.434Z" stroke="#E2E7F0" stroke-width="1.5"/>
<path d="M152.585 264.434H123.242V293.74H152.585V264.434Z" stroke="#E2E7F0" stroke-width="1.5"/>
<path d="M181.929 264.434H152.585V293.74H181.929V264.434Z" stroke="#E2E7F0" stroke-width="1.5"/>
<path d="M211.272 264.434H181.929V293.74H211.272V264.434Z" stroke="#E2E7F0" stroke-width="1.5"/>
<path d="M240.615 264.434H211.272V293.74H240.615V264.434Z" stroke="#E2E7F0" stroke-width="1.5"/>
<path d="M269.959 264.434H240.615V293.74H269.959V264.434Z" stroke="#E2E7F0" stroke-width="1.5"/>
<path d="M299.302 264.434H269.959V293.74H299.302V264.434Z" stroke="#E2E7F0" stroke-width="1.5"/>
<path d="M328.645 264.434H299.302V293.74H328.645V264.434Z" stroke="#E2E7F0" stroke-width="1.5"/>
<path d="M357.989 264.434H328.645V293.74H357.989V264.434Z" stroke="#E2E7F0" stroke-width="1.5"/>
<path d="M387.332 264.434H357.989V293.74H387.332V264.434Z" stroke="#E2E7F0" stroke-width="1.5"/>
<path d="M416.675 264.434H387.332V293.74H416.675V264.434Z" stroke="#E2E7F0" stroke-width="1.5"/>
<path d="M446.019 264.434H416.675V293.74H446.019V264.434Z" stroke="#E2E7F0" stroke-width="1.5"/>
<path d="M475.362 264.434H446.019V293.74H475.362V264.434Z" stroke="#E2E7F0" stroke-width="1.5"/>
<path d="M504.705 264.434H475.362V293.74H504.705V264.434Z" stroke="#E2E7F0" stroke-width="1.5"/>
<path d="M534.049 264.434H504.705V293.74H534.049V264.434Z" stroke="#E2E7F0" stroke-width="1.5"/>
<path d="M563.392 264.434H534.049V293.74H563.392V264.434Z" stroke="#E2E7F0" stroke-width="1.5"/>
<path d="M592.735 264.434H563.392V293.74H592.735V264.434Z" stroke="#E2E7F0" stroke-width="1.5"/>
<path d="M622.078 264.434H592.735V293.74H622.078V264.434Z" stroke="#E2E7F0" stroke-width="1.5"/>
<path d="M651.422 264.434H622.079V293.74H651.422V264.434Z" stroke="#E2E7F0" stroke-width="1.5"/>
<path d="M680.765 264.434H651.422V293.74H680.765V264.434Z" stroke="#E2E7F0" stroke-width="1.5"/>
<path d="M710.109 264.434H680.765V293.74H710.109V264.434Z" stroke="#E2E7F0" stroke-width="1.5"/>
<path d="M739.452 264.434H710.109V293.74H739.452V264.434Z" stroke="#E2E7F0" stroke-width="1.5"/>
<path d="M768.795 264.434H739.452V293.74H768.795V264.434Z" stroke="#E2E7F0" stroke-width="1.5"/>
<path d="M798.138 264.434H768.795V293.74H798.138V264.434Z" stroke="#E2E7F0" stroke-width="1.5"/>
<path d="M827.482 264.434H798.139V293.74H827.482V264.434Z" stroke="#E2E7F0" stroke-width="1.5"/>
<path d="M856.825 264.434H827.482V293.74H856.825V264.434Z" stroke="#E2E7F0" stroke-width="1.5"/>
<path d="M886.168 264.434H856.825V293.74H886.168V264.434Z" stroke="#E2E7F0" stroke-width="1.5"/>
<path d="M915.512 264.434H886.168V293.74H915.512V264.434Z" stroke="#E2E7F0" stroke-width="1.5"/>
<path d="M944.855 264.434H915.512V293.74H944.855V264.434Z" stroke="#E2E7F0" stroke-width="1.5"/>
<path d="M974.199 264.434H944.855V293.74H974.199V264.434Z" stroke="#E2E7F0" stroke-width="1.5"/>
<path d="M1003.54 264.434H974.198V293.74H1003.54V264.434Z" stroke="#E2E7F0" stroke-width="1.5"/>
<path d="M1032.89 264.434H1003.54V293.74H1032.89V264.434Z" stroke="#E2E7F0" stroke-width="1.5"/>
<path d="M1062.23 264.434H1032.89V293.74H1062.23V264.434Z" fill="#E2E7F0" fill-opacity="0.3" stroke="#E2E7F0" stroke-width="1.5"/>
<path d="M1091.57 264.434H1062.23V293.74H1091.57V264.434Z" stroke="#E2E7F0" stroke-width="1.5"/>
<path d="M5.86866 293.74H-23.4747V323.046H5.86866V293.74Z" stroke="#E2E7F0" stroke-width="1.5"/>
<path d="M35.212 293.74H5.86866V323.046H35.212V293.74Z" stroke="#E2E7F0" stroke-width="1.5"/>
<path d="M64.5553 293.74H35.212V323.046H64.5553V293.74Z" stroke="#E2E7F0" stroke-width="1.5"/>
<path d="M93.8986 293.74H64.5553V323.046H93.8986V293.74Z" stroke="#E2E7F0" stroke-width="1.5"/>
<path d="M123.242 293.74H93.8986V323.046H123.242V293.74Z" stroke="#E2E7F0" stroke-width="1.5"/>
<path d="M152.585 293.74H123.242V323.046H152.585V293.74Z" stroke="#E2E7F0" stroke-width="1.5"/>
<path d="M181.929 293.74H152.585V323.046H181.929V293.74Z" stroke="#E2E7F0" stroke-width="1.5"/>
<path d="M211.272 293.74H181.929V323.046H211.272V293.74Z" fill="#E2E7F0" fill-opacity="0.3" stroke="#E2E7F0" stroke-width="1.5"/>
<path d="M240.615 293.74H211.272V323.046H240.615V293.74Z" stroke="#E2E7F0" stroke-width="1.5"/>
<path d="M269.959 293.74H240.615V323.046H269.959V293.74Z" stroke="#E2E7F0" stroke-width="1.5"/>
<path d="M299.302 293.74H269.959V323.046H299.302V293.74Z" stroke="#E2E7F0" stroke-width="1.5"/>
<path d="M328.645 293.74H299.302V323.046H328.645V293.74Z" stroke="#E2E7F0" stroke-width="1.5"/>
<path d="M357.989 293.74H328.645V323.046H357.989V293.74Z" stroke="#E2E7F0" stroke-width="1.5"/>
<path d="M387.332 293.74H357.989V323.046H387.332V293.74Z" stroke="#E2E7F0" stroke-width="1.5"/>
<path d="M416.675 293.74H387.332V323.046H416.675V293.74Z" fill="#E2E7F0" fill-opacity="0.3" stroke="#E2E7F0" stroke-width="1.5"/>
<path d="M446.019 293.74H416.675V323.046H446.019V293.74Z" stroke="#E2E7F0" stroke-width="1.5"/>
<path d="M475.362 293.74H446.019V323.046H475.362V293.74Z" stroke="#E2E7F0" stroke-width="1.5"/>
<path d="M504.705 293.74H475.362V323.046H504.705V293.74Z" stroke="#E2E7F0" stroke-width="1.5"/>
<path d="M534.049 293.74H504.705V323.046H534.049V293.74Z" stroke="#E2E7F0" stroke-width="1.5"/>
<path d="M563.392 293.74H534.049V323.046H563.392V293.74Z" stroke="#E2E7F0" stroke-width="1.5"/>
<path d="M592.735 293.74H563.392V323.046H592.735V293.74Z" stroke="#E2E7F0" stroke-width="1.5"/>
<path d="M622.078 293.74H592.735V323.046H622.078V293.74Z" stroke="#E2E7F0" stroke-width="1.5"/>
<path d="M651.422 293.74H622.079V323.046H651.422V293.74Z" stroke="#E2E7F0" stroke-width="1.5"/>
<path d="M680.765 293.74H651.422V323.046H680.765V293.74Z" stroke="#E2E7F0" stroke-width="1.5"/>
<path d="M710.109 293.74H680.765V323.046H710.109V293.74Z" stroke="#E2E7F0" stroke-width="1.5"/>
<path d="M739.452 293.74H710.109V323.046H739.452V293.74Z" stroke="#E2E7F0" stroke-width="1.5"/>
<path d="M768.795 293.74H739.452V323.046H768.795V293.74Z" stroke="#E2E7F0" stroke-width="1.5"/>
<path d="M798.138 293.74H768.795V323.046H798.138V293.74Z" stroke="#E2E7F0" stroke-width="1.5"/>
<path d="M827.482 293.74H798.139V323.046H827.482V293.74Z" stroke="#E2E7F0" stroke-width="1.5"/>
<path d="M856.825 293.74H827.482V323.046H856.825V293.74Z" stroke="#E2E7F0" stroke-width="1.5"/>
<path d="M886.168 293.74H856.825V323.046H886.168V293.74Z" stroke="#E2E7F0" stroke-width="1.5"/>
<path d="M915.512 293.74H886.168V323.046H915.512V293.74Z" stroke="#E2E7F0" stroke-width="1.5"/>
<path d="M944.855 293.74H915.512V323.046H944.855V293.74Z" stroke="#E2E7F0" stroke-width="1.5"/>
<path d="M974.199 293.74H944.855V323.046H974.199V293.74Z" stroke="#E2E7F0" stroke-width="1.5"/>
<path d="M1003.54 293.74H974.198V323.046H1003.54V293.74Z" stroke="#E2E7F0" stroke-width="1.5"/>
<path d="M1032.89 293.74H1003.54V323.046H1032.89V293.74Z" stroke="#E2E7F0" stroke-width="1.5"/>
<path d="M1062.23 293.74H1032.89V323.046H1062.23V293.74Z" stroke="#E2E7F0" stroke-width="1.5"/>
<path d="M1091.57 293.74H1062.23V323.046H1091.57V293.74Z" stroke="#E2E7F0" stroke-width="1.5"/>
<path d="M5.86866 323.046H-23.4747V352.353H5.86866V323.046Z" stroke="#E2E7F0" stroke-width="1.5"/>
<path d="M35.212 323.046H5.86866V352.353H35.212V323.046Z" stroke="#E2E7F0" stroke-width="1.5"/>
<path d="M64.5553 323.046H35.212V352.353H64.5553V323.046Z" stroke="#E2E7F0" stroke-width="1.5"/>
<path d="M93.8986 323.046H64.5553V352.353H93.8986V323.046Z" stroke="#E2E7F0" stroke-width="1.5"/>
<path d="M123.242 323.046H93.8986V352.353H123.242V323.046Z" stroke="#E2E7F0" stroke-width="1.5"/>
<path d="M152.585 323.046H123.242V352.353H152.585V323.046Z" stroke="#E2E7F0" stroke-width="1.5"/>
<path d="M181.929 323.046H152.585V352.353H181.929V323.046Z" stroke="#E2E7F0" stroke-width="1.5"/>
<path d="M211.272 323.046H181.929V352.353H211.272V323.046Z" stroke="#E2E7F0" stroke-width="1.5"/>
<path d="M240.615 323.046H211.272V352.353H240.615V323.046Z" stroke="#E2E7F0" stroke-width="1.5"/>
<path d="M269.959 323.046H240.615V352.353H269.959V323.046Z" stroke="#E2E7F0" stroke-width="1.5"/>
<path d="M299.302 323.046H269.959V352.353H299.302V323.046Z" stroke="#E2E7F0" stroke-width="1.5"/>
<path d="M328.645 323.046H299.302V352.353H328.645V323.046Z" stroke="#E2E7F0" stroke-width="1.5"/>
<path d="M357.989 323.046H328.645V352.353H357.989V323.046Z" stroke="#E2E7F0" stroke-width="1.5"/>
<path d="M387.332 323.046H357.989V352.353H387.332V323.046Z" stroke="#E2E7F0" stroke-width="1.5"/>
<path d="M416.675 323.046H387.332V352.353H416.675V323.046Z" stroke="#E2E7F0" stroke-width="1.5"/>
<path d="M446.019 323.046H416.675V352.353H446.019V323.046Z" stroke="#E2E7F0" stroke-width="1.5"/>
<path d="M475.362 323.046H446.019V352.353H475.362V323.046Z" stroke="#E2E7F0" stroke-width="1.5"/>
<path d="M504.705 323.046H475.362V352.353H504.705V323.046Z" stroke="#E2E7F0" stroke-width="1.5"/>
<path d="M534.049 323.046H504.705V352.353H534.049V323.046Z" stroke="#E2E7F0" stroke-width="1.5"/>
<path d="M563.392 323.046H534.049V352.353H563.392V323.046Z" stroke="#E2E7F0" stroke-width="1.5"/>
<path d="M592.735 323.046H563.392V352.353H592.735V323.046Z" stroke="#E2E7F0" stroke-width="1.5"/>
<path d="M622.078 323.046H592.735V352.353H622.078V323.046Z" stroke="#E2E7F0" stroke-width="1.5"/>
<path d="M651.422 323.046H622.079V352.353H651.422V323.046Z" stroke="#E2E7F0" stroke-width="1.5"/>
<path d="M680.765 323.046H651.422V352.353H680.765V323.046Z" stroke="#E2E7F0" stroke-width="1.5"/>
<path d="M710.109 323.046H680.765V352.353H710.109V323.046Z" stroke="#E2E7F0" stroke-width="1.5"/>
<path d="M739.452 323.046H710.109V352.353H739.452V323.046Z" stroke="#E2E7F0" stroke-width="1.5"/>
<path d="M768.795 323.046H739.452V352.353H768.795V323.046Z" stroke="#E2E7F0" stroke-width="1.5"/>
<path d="M798.138 323.046H768.795V352.353H798.138V323.046Z" fill="#E2E7F0" fill-opacity="0.3" stroke="#E2E7F0" stroke-width="1.5"/>
<path d="M827.482 323.046H798.139V352.353H827.482V323.046Z" stroke="#E2E7F0" stroke-width="1.5"/>
<path d="M856.825 323.046H827.482V352.353H856.825V323.046Z" stroke="#E2E7F0" stroke-width="1.5"/>
<path d="M886.168 323.046H856.825V352.353H886.168V323.046Z" stroke="#E2E7F0" stroke-width="1.5"/>
<path d="M915.512 323.046H886.168V352.353H915.512V323.046Z" stroke="#E2E7F0" stroke-width="1.5"/>
<path d="M944.855 323.046H915.512V352.353H944.855V323.046Z" stroke="#E2E7F0" stroke-width="1.5"/>
<path d="M974.199 323.046H944.855V352.353H974.199V323.046Z" stroke="#E2E7F0" stroke-width="1.5"/>
<path d="M1003.54 323.046H974.198V352.353H1003.54V323.046Z" fill="#E2E7F0" fill-opacity="0.3" stroke="#E2E7F0" stroke-width="1.5"/>
<path d="M1032.89 323.046H1003.54V352.353H1032.89V323.046Z" stroke="#E2E7F0" stroke-width="1.5"/>
<path d="M1062.23 323.046H1032.89V352.353H1062.23V323.046Z" stroke="#E2E7F0" stroke-width="1.5"/>
<path d="M1091.57 323.046H1062.23V352.353H1091.57V323.046Z" stroke="#E2E7F0" stroke-width="1.5"/>
<path d="M5.86866 352.353H-23.4747V381.659H5.86866V352.353Z" stroke="#E2E7F0" stroke-width="1.5"/>
<path d="M35.212 352.353H5.86866V381.659H35.212V352.353Z" stroke="#E2E7F0" stroke-width="1.5"/>
<path d="M64.5553 352.353H35.212V381.659H64.5553V352.353Z" fill="#E2E7F0" fill-opacity="0.3" stroke="#E2E7F0" stroke-width="1.5"/>
<path d="M93.8986 352.353H64.5553V381.659H93.8986V352.353Z" stroke="#E2E7F0" stroke-width="1.5"/>
<path d="M123.242 352.353H93.8986V381.659H123.242V352.353Z" stroke="#E2E7F0" stroke-width="1.5"/>
<path d="M152.585 352.353H123.242V381.659H152.585V352.353Z" stroke="#E2E7F0" stroke-width="1.5"/>
<path d="M181.929 352.353H152.585V381.659H181.929V352.353Z" stroke="#E2E7F0" stroke-width="1.5"/>
<path d="M211.272 352.353H181.929V381.659H211.272V352.353Z" stroke="#E2E7F0" stroke-width="1.5"/>
<path d="M240.615 352.353H211.272V381.659H240.615V352.353Z" stroke="#E2E7F0" stroke-width="1.5"/>
<path d="M269.959 352.353H240.615V381.659H269.959V352.353Z" stroke="#E2E7F0" stroke-width="1.5"/>
<path d="M299.302 352.353H269.959V381.659H299.302V352.353Z" stroke="#E2E7F0" stroke-width="1.5"/>
<path d="M328.645 352.353H299.302V381.659H328.645V352.353Z" stroke="#E2E7F0" stroke-width="1.5"/>
<path d="M357.989 352.353H328.645V381.659H357.989V352.353Z" fill="#E2E7F0" fill-opacity="0.3" stroke="#E2E7F0" stroke-width="1.5"/>
<path d="M387.332 352.353H357.989V381.659H387.332V352.353Z" stroke="#E2E7F0" stroke-width="1.5"/>
<path d="M416.675 352.353H387.332V381.659H416.675V352.353Z" stroke="#E2E7F0" stroke-width="1.5"/>
<path d="M446.019 352.353H416.675V381.659H446.019V352.353Z" stroke="#E2E7F0" stroke-width="1.5"/>
<path d="M475.362 352.353H446.019V381.659H475.362V352.353Z" stroke="#E2E7F0" stroke-width="1.5"/>
<path d="M504.705 352.353H475.362V381.659H504.705V352.353Z" stroke="#E2E7F0" stroke-width="1.5"/>
<path d="M534.049 352.353H504.705V381.659H534.049V352.353Z" stroke="#E2E7F0" stroke-width="1.5"/>
<path d="M563.392 352.353H534.049V381.659H563.392V352.353Z" stroke="#E2E7F0" stroke-width="1.5"/>
<path d="M592.735 352.353H563.392V381.659H592.735V352.353Z" stroke="#E2E7F0" stroke-width="1.5"/>
<path d="M622.078 352.353H592.735V381.659H622.078V352.353Z" stroke="#E2E7F0" stroke-width="1.5"/>
<path d="M651.422 352.353H622.079V381.659H651.422V352.353Z" stroke="#E2E7F0" stroke-width="1.5"/>
<path d="M680.765 352.353H651.422V381.659H680.765V352.353Z" stroke="#E2E7F0" stroke-width="1.5"/>
<path d="M710.109 352.353H680.765V381.659H710.109V352.353Z" stroke="#E2E7F0" stroke-width="1.5"/>
<path d="M739.452 352.353H710.109V381.659H739.452V352.353Z" fill="#E2E7F0" fill-opacity="0.3" stroke="#E2E7F0" stroke-width="1.5"/>
<path d="M768.795 352.353H739.452V381.659H768.795V352.353Z" stroke="#E2E7F0" stroke-width="1.5"/>
<path d="M798.138 352.353H768.795V381.659H798.138V352.353Z" stroke="#E2E7F0" stroke-width="1.5"/>
<path d="M827.482 352.353H798.139V381.659H827.482V352.353Z" stroke="#E2E7F0" stroke-width="1.5"/>
<path d="M856.825 352.353H827.482V381.659H856.825V352.353Z" stroke="#E2E7F0" stroke-width="1.5"/>
<path d="M886.168 352.353H856.825V381.659H886.168V352.353Z" stroke="#E2E7F0" stroke-width="1.5"/>
<path d="M915.512 352.353H886.168V381.659H915.512V352.353Z" stroke="#E2E7F0" stroke-width="1.5"/>
<path d="M944.855 352.353H915.512V381.659H944.855V352.353Z" stroke="#E2E7F0" stroke-width="1.5"/>
<path d="M974.199 352.353H944.855V381.659H974.199V352.353Z" stroke="#E2E7F0" stroke-width="1.5"/>
<path d="M1003.54 352.353H974.198V381.659H1003.54V352.353Z" stroke="#E2E7F0" stroke-width="1.5"/>
<path d="M1032.89 352.353H1003.54V381.659H1032.89V352.353Z" stroke="#E2E7F0" stroke-width="1.5"/>
<path d="M1062.23 352.353H1032.89V381.659H1062.23V352.353Z" stroke="#E2E7F0" stroke-width="1.5"/>
<path d="M1091.57 352.353H1062.23V381.659H1091.57V352.353Z" stroke="#E2E7F0" stroke-width="1.5"/>
<path d="M5.86866 381.659H-23.4747V410.965H5.86866V381.659Z" stroke="#E2E7F0" stroke-width="1.5"/>
<path d="M35.212 381.659H5.86866V410.965H35.212V381.659Z" stroke="#E2E7F0" stroke-width="1.5"/>
<path d="M64.5553 381.659H35.212V410.965H64.5553V381.659Z" stroke="#E2E7F0" stroke-width="1.5"/>
<path d="M93.8986 381.659H64.5553V410.965H93.8986V381.659Z" stroke="#E2E7F0" stroke-width="1.5"/>
<path d="M123.242 381.659H93.8986V410.965H123.242V381.659Z" stroke="#E2E7F0" stroke-width="1.5"/>
<path d="M152.585 381.659H123.242V410.965H152.585V381.659Z" fill="#E2E7F0" fill-opacity="0.3" stroke="#E2E7F0" stroke-width="1.5"/>
<path d="M181.929 381.659H152.585V410.965H181.929V381.659Z" stroke="#E2E7F0" stroke-width="1.5"/>
<path d="M211.272 381.659H181.929V410.965H211.272V381.659Z" stroke="#E2E7F0" stroke-width="1.5"/>
<path d="M240.615 381.659H211.272V410.965H240.615V381.659Z" stroke="#E2E7F0" stroke-width="1.5"/>
<path d="M269.959 381.659H240.615V410.965H269.959V381.659Z" stroke="#E2E7F0" stroke-width="1.5"/>
<path d="M299.302 381.659H269.959V410.965H299.302V381.659Z" stroke="#E2E7F0" stroke-width="1.5"/>
<path d="M328.645 381.659H299.302V410.965H328.645V381.659Z" stroke="#E2E7F0" stroke-width="1.5"/>
<path d="M357.989 381.659H328.645V410.965H357.989V381.659Z" stroke="#E2E7F0" stroke-width="1.5"/>
<path d="M387.332 381.659H357.989V410.965H387.332V381.659Z" stroke="#E2E7F0" stroke-width="1.5"/>
<path d="M416.675 381.659H387.332V410.965H416.675V381.659Z" stroke="#E2E7F0" stroke-width="1.5"/>
<path d="M446.019 381.659H416.675V410.965H446.019V381.659Z" stroke="#E2E7F0" stroke-width="1.5"/>
<path d="M475.362 381.659H446.019V410.965H475.362V381.659Z" stroke="#E2E7F0" stroke-width="1.5"/>
<path d="M504.705 381.659H475.362V410.965H504.705V381.659Z" stroke="#E2E7F0" stroke-width="1.5"/>
<path d="M534.049 381.659H504.705V410.965H534.049V381.659Z" stroke="#E2E7F0" stroke-width="1.5"/>
<path d="M563.392 381.659H534.049V410.965H563.392V381.659Z" stroke="#E2E7F0" stroke-width="1.5"/>
<path d="M592.735 381.659H563.392V410.965H592.735V381.659Z" stroke="#E2E7F0" stroke-width="1.5"/>
<path d="M622.078 381.659H592.735V410.965H622.078V381.659Z" stroke="#E2E7F0" stroke-width="1.5"/>
<path d="M651.422 381.659H622.079V410.965H651.422V381.659Z" stroke="#E2E7F0" stroke-width="1.5"/>
<path d="M680.765 381.659H651.422V410.965H680.765V381.659Z" stroke="#E2E7F0" stroke-width="1.5"/>
<path d="M710.109 381.659H680.765V410.965H710.109V381.659Z" stroke="#E2E7F0" stroke-width="1.5"/>
<path d="M739.452 381.659H710.109V410.965H739.452V381.659Z" stroke="#E2E7F0" stroke-width="1.5"/>
<path d="M768.795 381.659H739.452V410.965H768.795V381.659Z" stroke="#E2E7F0" stroke-width="1.5"/>
<path d="M798.138 381.659H768.795V410.965H798.138V381.659Z" stroke="#E2E7F0" stroke-width="1.5"/>
<path d="M827.482 381.659H798.139V410.965H827.482V381.659Z" stroke="#E2E7F0" stroke-width="1.5"/>
<path d="M856.825 381.659H827.482V410.965H856.825V381.659Z" stroke="#E2E7F0" stroke-width="1.5"/>
<path d="M886.168 381.659H856.825V410.965H886.168V381.659Z" stroke="#E2E7F0" stroke-width="1.5"/>
<path d="M915.512 381.659H886.168V410.965H915.512V381.659Z" stroke="#E2E7F0" stroke-width="1.5"/>
<path d="M944.855 381.659H915.512V410.965H944.855V381.659Z" stroke="#E2E7F0" stroke-width="1.5"/>
<path d="M974.199 381.659H944.855V410.965H974.199V381.659Z" stroke="#E2E7F0" stroke-width="1.5"/>
<path d="M1003.54 381.659H974.198V410.965H1003.54V381.659Z" stroke="#E2E7F0" stroke-width="1.5"/>
<path d="M1032.89 381.659H1003.54V410.965H1032.89V381.659Z" stroke="#E2E7F0" stroke-width="1.5"/>
<path d="M1062.23 381.659H1032.89V410.965H1062.23V381.659Z" stroke="#E2E7F0" stroke-width="1.5"/>
<path d="M1091.57 381.659H1062.23V410.965H1091.57V381.659Z" stroke="#E2E7F0" stroke-width="1.5"/>
</g>
<path d="M1069 0H0V477.919H1069V0Z" fill="url(#paint1_radial_201_340)" fill-opacity="0.2"/>
</g>
</g>
<path d="M236.56 181.137C234.054 181.137 231.838 180.728 229.912 179.909C228.003 179.074 226.503 177.813 225.412 176.125C224.321 174.438 223.776 172.29 223.776 169.682C223.776 167.534 224.142 165.702 224.875 164.185C225.608 162.651 226.631 161.398 227.943 160.426C229.256 159.455 230.782 158.713 232.52 158.202C234.276 157.691 236.168 157.358 238.196 157.205C240.395 157.034 242.159 156.83 243.489 156.591C244.836 156.336 245.807 155.986 246.404 155.543C247 155.083 247.299 154.478 247.299 153.728V153.625C247.299 152.603 246.907 151.818 246.122 151.273C245.338 150.728 244.333 150.455 243.105 150.455C241.759 150.455 240.659 150.753 239.807 151.35C238.972 151.929 238.469 152.824 238.299 154.034H225.31C225.48 151.648 226.239 149.449 227.586 147.438C228.949 145.409 230.935 143.79 233.543 142.58C236.151 141.353 239.407 140.739 243.31 140.739C246.122 140.739 248.645 141.071 250.878 141.736C253.111 142.384 255.012 143.296 256.58 144.472C258.148 145.631 259.341 146.995 260.159 148.563C260.995 150.114 261.412 151.801 261.412 153.625V180.523H248.219V175H247.912C247.128 176.466 246.174 177.651 245.049 178.554C243.941 179.458 242.671 180.114 241.239 180.523C239.824 180.932 238.265 181.137 236.56 181.137ZM241.162 172.239C242.236 172.239 243.242 172.017 244.179 171.574C245.134 171.131 245.909 170.492 246.506 169.657C247.103 168.821 247.401 167.807 247.401 166.614V163.341C247.026 163.495 246.625 163.639 246.199 163.776C245.79 163.912 245.347 164.04 244.87 164.159C244.409 164.279 243.915 164.389 243.387 164.492C242.875 164.594 242.338 164.688 241.776 164.773C240.685 164.943 239.79 165.225 239.091 165.617C238.409 165.992 237.898 166.461 237.557 167.023C237.233 167.568 237.071 168.182 237.071 168.864C237.071 169.955 237.455 170.79 238.222 171.37C238.989 171.949 239.969 172.239 241.162 172.239ZM280.326 141.25L286.054 153.421L292.088 141.25H306.099L295.565 160.887L306.61 180.523H292.701L286.054 168.046L279.61 180.523H265.497L276.644 160.887L266.213 141.25H280.326ZM311.117 180.523V141.25H325.23V180.523H311.117ZM318.174 137.159C316.265 137.159 314.628 136.529 313.265 135.267C311.901 134.006 311.219 132.489 311.219 130.716C311.219 128.943 311.901 127.426 313.265 126.165C314.628 124.904 316.265 124.273 318.174 124.273C320.1 124.273 321.736 124.904 323.083 126.165C324.446 127.426 325.128 128.943 325.128 130.716C325.128 132.489 324.446 134.006 323.083 135.267C321.736 136.529 320.1 137.159 318.174 137.159ZM351.342 181.239C347.081 181.239 343.433 180.395 340.399 178.708C337.365 177.003 335.038 174.634 333.419 171.6C331.799 168.549 330.99 165.012 330.99 160.989C330.99 156.966 331.799 153.438 333.419 150.404C335.038 147.353 337.365 144.983 340.399 143.296C343.433 141.591 347.081 140.739 351.342 140.739C355.603 140.739 359.251 141.591 362.285 143.296C365.319 144.983 367.646 147.353 369.265 150.404C370.885 153.438 371.694 156.966 371.694 160.989C371.694 165.012 370.885 168.549 369.265 171.6C367.646 174.634 365.319 177.003 362.285 178.708C359.251 180.395 355.603 181.239 351.342 181.239ZM351.444 170.807C352.637 170.807 353.669 170.407 354.538 169.605C355.407 168.804 356.081 167.662 356.558 166.179C357.035 164.696 357.274 162.932 357.274 160.887C357.274 158.824 357.035 157.06 356.558 155.594C356.081 154.111 355.407 152.969 354.538 152.168C353.669 151.367 352.637 150.966 351.444 150.966C350.183 150.966 349.1 151.367 348.197 152.168C347.294 152.969 346.603 154.111 346.126 155.594C345.649 157.06 345.41 158.824 345.41 160.887C345.41 162.932 345.649 164.696 346.126 166.179C346.603 167.662 347.294 168.804 348.197 169.605C349.1 170.407 350.183 170.807 351.444 170.807ZM377.421 180.523V141.25H390.819V148.716H391.228C392.046 146.262 393.444 144.318 395.421 142.887C397.399 141.455 399.751 140.739 402.478 140.739C405.24 140.739 407.617 141.472 409.612 142.938C411.606 144.387 412.808 146.313 413.217 148.716H413.626C414.291 146.313 415.706 144.387 417.87 142.938C420.035 141.472 422.575 140.739 425.49 140.739C429.257 140.739 432.308 141.949 434.643 144.37C436.995 146.79 438.171 150.012 438.171 154.034V180.523H424.058V157.614C424.058 155.892 423.623 154.546 422.754 153.574C421.885 152.586 420.717 152.091 419.251 152.091C417.802 152.091 416.652 152.586 415.799 153.574C414.964 154.546 414.546 155.892 414.546 157.614V180.523H401.046V157.614C401.046 155.892 400.612 154.546 399.742 153.574C398.873 152.586 397.706 152.091 396.24 152.091C395.268 152.091 394.433 152.313 393.734 152.756C393.035 153.199 392.49 153.838 392.098 154.674C391.723 155.492 391.535 156.472 391.535 157.614V180.523H377.421ZM470.905 154.341V164.978H446.36V154.341H470.905ZM498.225 181.239C493.963 181.239 490.316 180.395 487.282 178.708C484.247 177.003 481.921 174.634 480.301 171.6C478.682 168.549 477.872 165.012 477.872 160.989C477.872 156.966 478.682 153.438 480.301 150.404C481.921 147.353 484.247 144.983 487.282 143.296C490.316 141.591 493.963 140.739 498.225 140.739C502.077 140.739 505.409 141.438 508.222 142.836C511.051 144.216 513.242 146.176 514.793 148.716C516.344 151.239 517.128 154.205 517.145 157.614H504.054C503.867 155.551 503.27 153.983 502.265 152.909C501.276 151.818 499.997 151.273 498.429 151.273C497.202 151.273 496.128 151.631 495.208 152.347C494.287 153.046 493.571 154.111 493.06 155.543C492.549 156.958 492.293 158.739 492.293 160.887C492.293 163.034 492.549 164.824 493.06 166.256C493.571 167.671 494.287 168.736 495.208 169.452C496.128 170.151 497.202 170.5 498.429 170.5C499.469 170.5 500.39 170.262 501.191 169.784C501.992 169.29 502.64 168.574 503.134 167.637C503.645 166.682 503.952 165.523 504.054 164.159H517.145C517.094 167.62 516.301 170.637 514.767 173.211C513.233 175.767 511.06 177.745 508.247 179.142C505.452 180.54 502.111 181.239 498.225 181.239ZM537.082 128.159V180.523H522.968V128.159H537.082ZM563.193 181.239C558.932 181.239 555.284 180.395 552.25 178.708C549.216 177.003 546.89 174.634 545.27 171.6C543.651 168.549 542.841 165.012 542.841 160.989C542.841 156.966 543.651 153.438 545.27 150.404C546.89 147.353 549.216 144.983 552.25 143.296C555.284 141.591 558.932 140.739 563.193 140.739C567.455 140.739 571.103 141.591 574.137 143.296C577.171 144.983 579.497 147.353 581.117 150.404C582.736 153.438 583.546 156.966 583.546 160.989C583.546 165.012 582.736 168.549 581.117 171.6C579.497 174.634 577.171 177.003 574.137 178.708C571.103 180.395 567.455 181.239 563.193 181.239ZM563.296 170.807C564.489 170.807 565.52 170.407 566.39 169.605C567.259 168.804 567.932 167.662 568.409 166.179C568.887 164.696 569.125 162.932 569.125 160.887C569.125 158.824 568.887 157.06 568.409 155.594C567.932 154.111 567.259 152.969 566.39 152.168C565.52 151.367 564.489 150.966 563.296 150.966C562.034 150.966 560.952 151.367 560.049 152.168C559.145 152.969 558.455 154.111 557.978 155.594C557.5 157.06 557.262 158.824 557.262 160.887C557.262 162.932 557.5 164.696 557.978 166.179C558.455 167.662 559.145 168.804 560.049 169.605C560.952 170.407 562.034 170.807 563.296 170.807ZM614.739 163.341V141.25H628.853V180.523H615.455V173.057H615.046C614.193 175.563 612.702 177.523 610.571 178.938C608.441 180.336 605.909 181.034 602.978 181.034C600.233 181.034 597.83 180.404 595.767 179.142C593.722 177.881 592.128 176.142 590.986 173.926C589.861 171.711 589.29 169.171 589.273 166.307V141.25H603.387V163.341C603.404 165.284 603.898 166.81 604.87 167.918C605.858 169.026 607.239 169.58 609.012 169.58C610.188 169.58 611.202 169.333 612.054 168.838C612.924 168.327 613.588 167.611 614.049 166.691C614.526 165.753 614.756 164.637 614.739 163.341ZM650.247 181.034C647.451 181.034 644.877 180.301 642.525 178.836C640.19 177.37 638.315 175.145 636.9 172.162C635.502 169.179 634.804 165.421 634.804 160.887C634.804 156.148 635.537 152.296 637.002 149.33C638.485 146.364 640.394 144.191 642.73 142.81C645.082 141.429 647.554 140.739 650.144 140.739C652.088 140.739 653.792 141.08 655.258 141.762C656.724 142.426 657.951 143.321 658.94 144.446C659.929 145.554 660.679 146.773 661.19 148.103H661.394V128.159H675.508V180.523H661.497V174.08H661.19C660.644 175.409 659.86 176.603 658.838 177.659C657.832 178.699 656.605 179.526 655.156 180.139C653.724 180.736 652.088 181.034 650.247 181.034ZM655.463 170.193C656.758 170.193 657.866 169.818 658.787 169.068C659.724 168.301 660.44 167.228 660.934 165.847C661.446 164.449 661.701 162.796 661.701 160.887C661.701 158.943 661.446 157.282 660.934 155.901C660.44 154.503 659.724 153.438 658.787 152.705C657.866 151.955 656.758 151.58 655.463 151.58C654.167 151.58 653.059 151.955 652.139 152.705C651.235 153.438 650.537 154.503 650.042 155.901C649.565 157.282 649.326 158.943 649.326 160.887C649.326 162.83 649.565 164.5 650.042 165.898C650.537 167.279 651.235 168.344 652.139 169.094C653.059 169.827 654.167 170.193 655.463 170.193ZM705.96 141.25V151.478H679.676V141.25H705.96ZM684.687 180.523V140.125C684.687 136.887 685.267 134.202 686.426 132.071C687.585 129.941 689.221 128.347 691.335 127.29C693.448 126.233 695.937 125.705 698.801 125.705C700.59 125.705 702.329 125.841 704.017 126.114C705.721 126.387 706.983 126.625 707.801 126.83L705.755 136.955C705.244 136.801 704.647 136.682 703.965 136.597C703.284 136.495 702.687 136.443 702.176 136.443C700.846 136.443 699.951 136.725 699.491 137.287C699.031 137.85 698.801 138.591 698.801 139.512V180.523H684.687ZM725.519 128.159V180.523H711.406V128.159H725.519ZM743.654 181.137C741.148 181.137 738.932 180.728 737.006 179.909C735.097 179.074 733.597 177.813 732.506 176.125C731.415 174.438 730.87 172.29 730.87 169.682C730.87 167.534 731.236 165.702 731.969 164.185C732.702 162.651 733.725 161.398 735.037 160.426C736.35 159.455 737.875 158.713 739.614 158.202C741.37 157.691 743.262 157.358 745.29 157.205C747.489 157.034 749.253 156.83 750.583 156.591C751.929 156.336 752.901 155.986 753.497 155.543C754.094 155.083 754.392 154.478 754.392 153.728V153.625C754.392 152.603 754 151.818 753.216 151.273C752.432 150.728 751.426 150.455 750.199 150.455C748.853 150.455 747.753 150.753 746.901 151.35C746.066 151.929 745.563 152.824 745.392 154.034H732.404C732.574 151.648 733.333 149.449 734.679 147.438C736.043 145.409 738.029 143.79 740.637 142.58C743.245 141.353 746.5 140.739 750.404 140.739C753.216 140.739 755.739 141.071 757.972 141.736C760.205 142.384 762.105 143.296 763.674 144.472C765.242 145.631 766.435 146.995 767.253 148.563C768.088 150.114 768.506 151.801 768.506 153.625V180.523H755.313V175H755.006C754.222 176.466 753.267 177.651 752.142 178.554C751.034 179.458 749.765 180.114 748.333 180.523C746.918 180.932 745.358 181.137 743.654 181.137ZM748.256 172.239C749.33 172.239 750.336 172.017 751.273 171.574C752.228 171.131 753.003 170.492 753.6 169.657C754.196 168.821 754.495 167.807 754.495 166.614V163.341C754.12 163.495 753.719 163.639 753.293 163.776C752.884 163.912 752.441 164.04 751.963 164.159C751.503 164.279 751.009 164.389 750.48 164.492C749.969 164.594 749.432 164.688 748.87 164.773C747.779 164.943 746.884 165.225 746.185 165.617C745.503 165.992 744.992 166.461 744.651 167.023C744.327 167.568 744.165 168.182 744.165 168.864C744.165 169.955 744.549 170.79 745.316 171.37C746.083 171.949 747.063 172.239 748.256 172.239ZM775.25 180.523V141.25H788.954V148.716H789.363C790.079 145.955 791.213 143.935 792.764 142.657C794.332 141.378 796.164 140.739 798.261 140.739C798.875 140.739 799.48 140.79 800.076 140.892C800.69 140.978 801.278 141.105 801.84 141.276V153.318C801.142 153.08 800.281 152.901 799.258 152.782C798.235 152.662 797.358 152.603 796.625 152.603C795.244 152.603 794 152.918 792.892 153.549C791.801 154.162 790.94 155.032 790.309 156.157C789.679 157.264 789.363 158.568 789.363 160.068V180.523H775.25ZM823.037 181.239C818.843 181.239 815.23 180.438 812.196 178.836C809.179 177.216 806.852 174.898 805.215 171.881C803.596 168.847 802.787 165.216 802.787 160.989C802.787 156.932 803.605 153.387 805.241 150.353C806.877 147.318 809.187 144.958 812.17 143.27C815.153 141.583 818.673 140.739 822.73 140.739C825.696 140.739 828.38 141.199 830.784 142.12C833.187 143.04 835.241 144.378 836.946 146.134C838.65 147.872 839.963 149.986 840.883 152.475C841.804 154.963 842.264 157.767 842.264 160.887V164.159H807.184V156.387H829.275C829.258 155.262 828.968 154.273 828.406 153.421C827.86 152.551 827.119 151.878 826.181 151.401C825.261 150.907 824.213 150.659 823.037 150.659C821.894 150.659 820.846 150.907 819.892 151.401C818.937 151.878 818.17 152.543 817.59 153.395C817.028 154.247 816.73 155.245 816.696 156.387V164.773C816.696 166.034 816.96 167.159 817.488 168.148C818.017 169.137 818.775 169.912 819.764 170.475C820.752 171.037 821.946 171.318 823.343 171.318C824.315 171.318 825.201 171.182 826.002 170.909C826.821 170.637 827.519 170.245 828.099 169.733C828.679 169.205 829.105 168.574 829.377 167.841H842.264C841.821 170.568 840.772 172.938 839.119 174.949C837.465 176.943 835.275 178.495 832.548 179.603C829.838 180.693 826.667 181.239 823.037 181.239Z" fill="url(#paint2_linear_201_340)"/>
<path d="M345.513 227.369L342.7 227.676C342.621 227.392 342.482 227.125 342.283 226.875C342.09 226.625 341.828 226.423 341.499 226.27C341.169 226.116 340.766 226.04 340.289 226.04C339.646 226.04 339.107 226.179 338.669 226.457C338.237 226.736 338.024 227.097 338.03 227.54C338.024 227.92 338.164 228.23 338.448 228.469C338.737 228.707 339.215 228.903 339.879 229.057L342.112 229.534C343.351 229.801 344.271 230.224 344.874 230.804C345.482 231.384 345.789 232.142 345.794 233.08C345.789 233.903 345.547 234.631 345.07 235.261C344.598 235.886 343.942 236.375 343.101 236.727C342.26 237.08 341.294 237.256 340.203 237.256C338.601 237.256 337.311 236.92 336.334 236.25C335.357 235.574 334.774 234.634 334.587 233.429L337.595 233.139C337.732 233.73 338.021 234.176 338.465 234.477C338.908 234.778 339.485 234.929 340.195 234.929C340.928 234.929 341.516 234.778 341.959 234.477C342.408 234.176 342.632 233.804 342.632 233.361C342.632 232.986 342.487 232.676 342.198 232.432C341.914 232.187 341.47 232 340.868 231.869L338.635 231.401C337.379 231.139 336.45 230.699 335.848 230.08C335.246 229.455 334.948 228.665 334.953 227.71C334.948 226.903 335.166 226.205 335.61 225.614C336.058 225.017 336.681 224.557 337.476 224.233C338.277 223.903 339.2 223.739 340.246 223.739C341.78 223.739 342.987 224.065 343.868 224.719C344.754 225.372 345.303 226.256 345.513 227.369ZM354.134 237.256C352.821 237.256 351.688 236.983 350.733 236.438C349.784 235.886 349.054 235.108 348.543 234.102C348.031 233.091 347.776 231.901 347.776 230.531C347.776 229.185 348.031 228.003 348.543 226.986C349.06 225.963 349.781 225.168 350.708 224.599C351.634 224.026 352.722 223.739 353.972 223.739C354.779 223.739 355.54 223.869 356.256 224.131C356.977 224.386 357.614 224.784 358.165 225.324C358.722 225.864 359.159 226.551 359.477 227.386C359.796 228.216 359.955 229.205 359.955 230.352V231.298H349.225V229.219H356.997C356.992 228.628 356.864 228.102 356.614 227.642C356.364 227.176 356.014 226.81 355.565 226.543C355.122 226.276 354.605 226.142 354.014 226.142C353.384 226.142 352.83 226.295 352.352 226.602C351.875 226.903 351.503 227.301 351.236 227.795C350.975 228.284 350.841 228.821 350.835 229.406V231.222C350.835 231.983 350.975 232.636 351.253 233.182C351.531 233.722 351.921 234.136 352.421 234.426C352.921 234.71 353.506 234.852 354.176 234.852C354.625 234.852 355.031 234.79 355.395 234.665C355.759 234.534 356.074 234.344 356.341 234.094C356.608 233.844 356.81 233.534 356.946 233.165L359.827 233.489C359.645 234.25 359.298 234.915 358.787 235.483C358.281 236.045 357.634 236.483 356.844 236.795C356.054 237.102 355.151 237.256 354.134 237.256ZM365.65 229.33V237H362.565V223.909H365.514V226.134H365.667C365.968 225.401 366.448 224.818 367.107 224.386C367.772 223.955 368.593 223.739 369.57 223.739C370.474 223.739 371.261 223.932 371.931 224.318C372.607 224.705 373.13 225.264 373.499 225.997C373.874 226.73 374.059 227.619 374.053 228.665V237H370.968V229.142C370.968 228.267 370.741 227.582 370.286 227.088C369.838 226.594 369.215 226.347 368.42 226.347C367.88 226.347 367.4 226.466 366.98 226.705C366.565 226.937 366.238 227.276 365.999 227.719C365.766 228.162 365.65 228.699 365.65 229.33ZM382.048 237.23C381.019 237.23 380.099 236.966 379.286 236.438C378.474 235.909 377.832 235.142 377.36 234.136C376.889 233.131 376.653 231.909 376.653 230.472C376.653 229.017 376.891 227.79 377.369 226.79C377.852 225.784 378.502 225.026 379.32 224.514C380.139 223.997 381.051 223.739 382.056 223.739C382.823 223.739 383.454 223.869 383.948 224.131C384.443 224.386 384.835 224.696 385.124 225.06C385.414 225.418 385.639 225.756 385.798 226.074H385.926V219.545H389.019V237H385.985V234.938H385.798C385.639 235.256 385.409 235.594 385.107 235.952C384.806 236.304 384.409 236.605 383.914 236.855C383.42 237.105 382.798 237.23 382.048 237.23ZM382.909 234.699C383.562 234.699 384.119 234.523 384.579 234.17C385.039 233.812 385.389 233.315 385.627 232.679C385.866 232.043 385.985 231.301 385.985 230.455C385.985 229.608 385.866 228.872 385.627 228.247C385.394 227.622 385.048 227.136 384.588 226.79C384.133 226.443 383.573 226.27 382.909 226.27C382.221 226.27 381.647 226.449 381.187 226.807C380.727 227.165 380.38 227.659 380.147 228.29C379.914 228.92 379.798 229.642 379.798 230.455C379.798 231.273 379.914 232.003 380.147 232.645C380.386 233.281 380.735 233.784 381.195 234.153C381.661 234.517 382.232 234.699 382.909 234.699ZM401.345 219.545V237H398.26V219.545H401.345ZM410.228 237.256C408.95 237.256 407.842 236.974 406.904 236.412C405.967 235.849 405.239 235.062 404.722 234.051C404.211 233.04 403.955 231.858 403.955 230.506C403.955 229.153 404.211 227.969 404.722 226.952C405.239 225.935 405.967 225.145 406.904 224.582C407.842 224.02 408.95 223.739 410.228 223.739C411.507 223.739 412.614 224.02 413.552 224.582C414.489 225.145 415.214 225.935 415.725 226.952C416.242 227.969 416.501 229.153 416.501 230.506C416.501 231.858 416.242 233.04 415.725 234.051C415.214 235.062 414.489 235.849 413.552 236.412C412.614 236.974 411.507 237.256 410.228 237.256ZM410.245 234.784C410.938 234.784 411.518 234.594 411.984 234.213C412.45 233.827 412.796 233.31 413.024 232.662C413.257 232.014 413.373 231.293 413.373 230.497C413.373 229.696 413.257 228.972 413.024 228.324C412.796 227.67 412.45 227.151 411.984 226.764C411.518 226.378 410.938 226.185 410.245 226.185C409.535 226.185 408.944 226.378 408.472 226.764C408.007 227.151 407.657 227.67 407.424 228.324C407.197 228.972 407.083 229.696 407.083 230.497C407.083 231.293 407.197 232.014 407.424 232.662C407.657 233.31 408.007 233.827 408.472 234.213C408.944 234.594 409.535 234.784 410.245 234.784ZM424.813 242.182C423.705 242.182 422.753 242.031 421.958 241.73C421.162 241.435 420.523 241.037 420.04 240.537C419.557 240.037 419.222 239.483 419.034 238.875L421.813 238.202C421.938 238.457 422.119 238.71 422.358 238.96C422.597 239.216 422.918 239.426 423.321 239.591C423.73 239.761 424.244 239.847 424.864 239.847C425.739 239.847 426.463 239.634 427.037 239.207C427.611 238.787 427.898 238.094 427.898 237.128V234.648H427.744C427.585 234.966 427.352 235.293 427.046 235.628C426.744 235.963 426.344 236.244 425.844 236.472C425.35 236.699 424.727 236.812 423.977 236.812C422.972 236.812 422.06 236.577 421.242 236.105C420.429 235.628 419.781 234.918 419.298 233.974C418.821 233.026 418.583 231.838 418.583 230.412C418.583 228.974 418.821 227.761 419.298 226.773C419.781 225.778 420.432 225.026 421.25 224.514C422.068 223.997 422.98 223.739 423.986 223.739C424.753 223.739 425.384 223.869 425.878 224.131C426.378 224.386 426.776 224.696 427.071 225.06C427.367 225.418 427.591 225.756 427.744 226.074H427.915V223.909H430.958V237.213C430.958 238.332 430.69 239.259 430.156 239.991C429.622 240.724 428.892 241.273 427.966 241.636C427.04 242 425.989 242.182 424.813 242.182ZM424.838 234.392C425.492 234.392 426.048 234.233 426.509 233.915C426.969 233.597 427.318 233.139 427.557 232.543C427.796 231.946 427.915 231.23 427.915 230.395C427.915 229.571 427.796 228.849 427.557 228.23C427.324 227.611 426.977 227.131 426.517 226.79C426.063 226.443 425.503 226.27 424.838 226.27C424.151 226.27 423.577 226.449 423.117 226.807C422.656 227.165 422.31 227.656 422.077 228.281C421.844 228.901 421.727 229.605 421.727 230.395C421.727 231.196 421.844 231.898 422.077 232.5C422.315 233.097 422.665 233.562 423.125 233.898C423.591 234.227 424.162 234.392 424.838 234.392ZM444.466 227.369L441.654 227.676C441.574 227.392 441.435 227.125 441.236 226.875C441.043 226.625 440.781 226.423 440.452 226.27C440.122 226.116 439.719 226.04 439.242 226.04C438.6 226.04 438.06 226.179 437.622 226.457C437.19 226.736 436.977 227.097 436.983 227.54C436.977 227.92 437.117 228.23 437.401 228.469C437.69 228.707 438.168 228.903 438.833 229.057L441.065 229.534C442.304 229.801 443.225 230.224 443.827 230.804C444.435 231.384 444.742 232.142 444.747 233.08C444.742 233.903 444.5 234.631 444.023 235.261C443.551 235.886 442.895 236.375 442.054 236.727C441.213 237.08 440.247 237.256 439.156 237.256C437.554 237.256 436.264 236.92 435.287 236.25C434.31 235.574 433.727 234.634 433.54 233.429L436.548 233.139C436.685 233.73 436.975 234.176 437.418 234.477C437.861 234.778 438.438 234.929 439.148 234.929C439.881 234.929 440.469 234.778 440.912 234.477C441.361 234.176 441.585 233.804 441.585 233.361C441.585 232.986 441.44 232.676 441.151 232.432C440.867 232.187 440.423 232 439.821 231.869L437.588 231.401C436.333 231.139 435.404 230.699 434.801 230.08C434.199 229.455 433.901 228.665 433.906 227.71C433.901 226.903 434.119 226.205 434.563 225.614C435.012 225.017 435.634 224.557 436.429 224.233C437.23 223.903 438.154 223.739 439.199 223.739C440.733 223.739 441.94 224.065 442.821 224.719C443.708 225.372 444.256 226.256 444.466 227.369ZM459.875 223.909V226.295H452.137V223.909H459.875ZM454.071 237V222.673C454.071 221.793 454.253 221.06 454.617 220.474C454.986 219.889 455.48 219.452 456.1 219.162C456.719 218.872 457.406 218.727 458.162 218.727C458.696 218.727 459.171 218.77 459.585 218.855C460 218.94 460.307 219.017 460.506 219.085L459.892 221.472C459.762 221.432 459.597 221.392 459.398 221.352C459.199 221.307 458.977 221.284 458.733 221.284C458.159 221.284 457.753 221.423 457.514 221.702C457.281 221.974 457.165 222.366 457.165 222.878V237H454.071ZM462.291 237V223.909H465.283V226.091H465.419C465.658 225.335 466.067 224.753 466.646 224.344C467.232 223.929 467.899 223.722 468.649 223.722C468.82 223.722 469.01 223.73 469.22 223.747C469.436 223.759 469.615 223.778 469.757 223.807V226.645C469.627 226.599 469.419 226.56 469.135 226.526C468.857 226.486 468.587 226.466 468.325 226.466C467.763 226.466 467.257 226.588 466.808 226.832C466.365 227.071 466.016 227.403 465.76 227.83C465.504 228.256 465.377 228.747 465.377 229.304V237H462.291ZM476.978 237.256C475.7 237.256 474.592 236.974 473.654 236.412C472.717 235.849 471.989 235.062 471.472 234.051C470.961 233.04 470.705 231.858 470.705 230.506C470.705 229.153 470.961 227.969 471.472 226.952C471.989 225.935 472.717 225.145 473.654 224.582C474.592 224.02 475.7 223.739 476.978 223.739C478.257 223.739 479.364 224.02 480.302 224.582C481.239 225.145 481.964 225.935 482.475 226.952C482.992 227.969 483.251 229.153 483.251 230.506C483.251 231.858 482.992 233.04 482.475 234.051C481.964 235.062 481.239 235.849 480.302 236.412C479.364 236.974 478.257 237.256 476.978 237.256ZM476.995 234.784C477.688 234.784 478.268 234.594 478.734 234.213C479.2 233.827 479.546 233.31 479.774 232.662C480.007 232.014 480.123 231.293 480.123 230.497C480.123 229.696 480.007 228.972 479.774 228.324C479.546 227.67 479.2 227.151 478.734 226.764C478.268 226.378 477.688 226.185 476.995 226.185C476.285 226.185 475.694 226.378 475.222 226.764C474.757 227.151 474.407 227.67 474.174 228.324C473.947 228.972 473.833 229.696 473.833 230.497C473.833 231.293 473.947 232.014 474.174 232.662C474.407 233.31 474.757 233.827 475.222 234.213C475.694 234.594 476.285 234.784 476.995 234.784ZM485.869 237V223.909H488.818V226.134H488.972C489.244 225.384 489.696 224.798 490.327 224.378C490.958 223.952 491.71 223.739 492.585 223.739C493.472 223.739 494.219 223.955 494.827 224.386C495.44 224.812 495.872 225.395 496.122 226.134H496.259C496.548 225.406 497.037 224.827 497.725 224.395C498.418 223.957 499.239 223.739 500.188 223.739C501.392 223.739 502.375 224.119 503.137 224.881C503.898 225.642 504.279 226.753 504.279 228.213V237H501.185V228.69C501.185 227.878 500.969 227.284 500.537 226.909C500.105 226.528 499.577 226.338 498.952 226.338C498.208 226.338 497.625 226.571 497.205 227.037C496.79 227.497 496.583 228.097 496.583 228.835V237H493.557V228.562C493.557 227.886 493.352 227.347 492.943 226.943C492.54 226.54 492.012 226.338 491.358 226.338C490.915 226.338 490.512 226.452 490.148 226.679C489.784 226.901 489.494 227.216 489.279 227.625C489.063 228.028 488.955 228.5 488.955 229.04V237H485.869ZM519.072 237.256C517.765 237.256 516.643 236.969 515.705 236.395C514.774 235.821 514.055 235.028 513.549 234.017C513.049 233 512.799 231.83 512.799 230.506C512.799 229.176 513.055 228.003 513.566 226.986C514.078 225.963 514.799 225.168 515.731 224.599C516.668 224.026 517.776 223.739 519.055 223.739C520.117 223.739 521.058 223.935 521.876 224.327C522.7 224.713 523.356 225.261 523.845 225.972C524.333 226.676 524.612 227.5 524.68 228.443H521.731C521.612 227.812 521.328 227.287 520.879 226.866C520.436 226.44 519.842 226.227 519.097 226.227C518.467 226.227 517.913 226.398 517.436 226.739C516.958 227.074 516.586 227.557 516.319 228.188C516.058 228.818 515.927 229.574 515.927 230.455C515.927 231.347 516.058 232.114 516.319 232.756C516.58 233.392 516.947 233.884 517.418 234.23C517.896 234.571 518.455 234.741 519.097 234.741C519.552 234.741 519.958 234.656 520.316 234.486C520.68 234.31 520.984 234.057 521.228 233.727C521.472 233.398 521.64 232.997 521.731 232.526H524.68C524.606 233.452 524.333 234.273 523.862 234.989C523.39 235.699 522.748 236.256 521.936 236.659C521.123 237.057 520.168 237.256 519.072 237.256ZM530.298 219.545V237H527.213V219.545H530.298ZM539.181 237.256C537.903 237.256 536.795 236.974 535.857 236.412C534.92 235.849 534.193 235.062 533.676 234.051C533.164 233.04 532.909 231.858 532.909 230.506C532.909 229.153 533.164 227.969 533.676 226.952C534.193 225.935 534.92 225.145 535.857 224.582C536.795 224.02 537.903 223.739 539.181 223.739C540.46 223.739 541.568 224.02 542.505 224.582C543.443 225.145 544.167 225.935 544.678 226.952C545.195 227.969 545.454 229.153 545.454 230.506C545.454 231.858 545.195 233.04 544.678 234.051C544.167 235.062 543.443 235.849 542.505 236.412C541.568 236.974 540.46 237.256 539.181 237.256ZM539.198 234.784C539.891 234.784 540.471 234.594 540.937 234.213C541.403 233.827 541.749 233.31 541.977 232.662C542.21 232.014 542.326 231.293 542.326 230.497C542.326 229.696 542.21 228.972 541.977 228.324C541.749 227.67 541.403 227.151 540.937 226.764C540.471 226.378 539.891 226.185 539.198 226.185C538.488 226.185 537.897 226.378 537.426 226.764C536.96 227.151 536.61 227.67 536.377 228.324C536.15 228.972 536.036 229.696 536.036 230.497C536.036 231.293 536.15 232.014 536.377 232.662C536.61 233.31 536.96 233.827 537.426 234.213C537.897 234.594 538.488 234.784 539.198 234.784ZM556.416 231.494V223.909H559.502V237H556.51V234.673H556.374C556.078 235.406 555.592 236.006 554.916 236.472C554.246 236.937 553.419 237.17 552.436 237.17C551.578 237.17 550.82 236.98 550.161 236.599C549.507 236.213 548.996 235.653 548.627 234.92C548.257 234.182 548.073 233.29 548.073 232.244V223.909H551.158V231.767C551.158 232.597 551.385 233.256 551.84 233.744C552.294 234.233 552.891 234.477 553.629 234.477C554.084 234.477 554.524 234.366 554.95 234.145C555.377 233.923 555.726 233.594 555.999 233.156C556.277 232.713 556.416 232.159 556.416 231.494ZM567.532 237.23C566.504 237.23 565.583 236.966 564.771 236.438C563.958 235.909 563.316 235.142 562.845 234.136C562.373 233.131 562.137 231.909 562.137 230.472C562.137 229.017 562.376 227.79 562.853 226.79C563.336 225.784 563.987 225.026 564.805 224.514C565.623 223.997 566.535 223.739 567.541 223.739C568.308 223.739 568.938 223.869 569.433 224.131C569.927 224.386 570.319 224.696 570.609 225.06C570.899 225.418 571.123 225.756 571.282 226.074H571.41V219.545H574.504V237H571.47V234.938H571.282C571.123 235.256 570.893 235.594 570.592 235.952C570.291 236.304 569.893 236.605 569.399 236.855C568.904 237.105 568.282 237.23 567.532 237.23ZM568.393 234.699C569.046 234.699 569.603 234.523 570.063 234.17C570.524 233.812 570.873 233.315 571.112 232.679C571.35 232.043 571.47 231.301 571.47 230.455C571.47 229.608 571.35 228.872 571.112 228.247C570.879 227.622 570.532 227.136 570.072 226.79C569.617 226.443 569.058 226.27 568.393 226.27C567.705 226.27 567.132 226.449 566.671 226.807C566.211 227.165 565.864 227.659 565.632 228.29C565.399 228.92 565.282 229.642 565.282 230.455C565.282 231.273 565.399 232.003 565.632 232.645C565.87 233.281 566.22 233.784 566.68 234.153C567.146 234.517 567.717 234.699 568.393 234.699ZM584.422 223.909V226.295H576.683V223.909H584.422ZM578.618 237V222.673C578.618 221.793 578.8 221.06 579.164 220.474C579.533 219.889 580.027 219.452 580.646 219.162C581.266 218.872 581.953 218.727 582.709 218.727C583.243 218.727 583.717 218.77 584.132 218.855C584.547 218.94 584.854 219.017 585.053 219.085L584.439 221.472C584.308 221.432 584.144 221.392 583.945 221.352C583.746 221.307 583.524 221.284 583.28 221.284C582.706 221.284 582.3 221.423 582.061 221.702C581.828 221.974 581.712 222.366 581.712 222.878V237H578.618ZM589.923 219.545V237H586.838V219.545H589.923ZM596.863 237.264C596.034 237.264 595.286 237.116 594.622 236.821C593.963 236.52 593.44 236.077 593.053 235.491C592.673 234.906 592.482 234.185 592.482 233.327C592.482 232.588 592.619 231.977 592.891 231.494C593.164 231.011 593.536 230.625 594.008 230.335C594.48 230.045 595.011 229.827 595.602 229.679C596.198 229.526 596.815 229.415 597.451 229.347C598.218 229.267 598.84 229.196 599.318 229.134C599.795 229.065 600.141 228.963 600.357 228.827C600.579 228.685 600.69 228.466 600.69 228.17V228.119C600.69 227.477 600.499 226.98 600.119 226.628C599.738 226.276 599.19 226.099 598.474 226.099C597.718 226.099 597.119 226.264 596.676 226.594C596.238 226.923 595.943 227.312 595.789 227.761L592.909 227.352C593.136 226.557 593.511 225.892 594.034 225.358C594.556 224.818 595.195 224.415 595.951 224.148C596.707 223.875 597.542 223.739 598.457 223.739C599.088 223.739 599.715 223.812 600.34 223.96C600.965 224.108 601.536 224.352 602.053 224.693C602.57 225.028 602.985 225.486 603.298 226.065C603.616 226.645 603.775 227.369 603.775 228.239V237H600.809V235.202H600.707C600.519 235.565 600.255 235.906 599.914 236.224C599.579 236.537 599.156 236.79 598.644 236.983C598.139 237.17 597.545 237.264 596.863 237.264ZM597.664 234.997C598.284 234.997 598.82 234.875 599.275 234.631C599.73 234.381 600.079 234.051 600.323 233.642C600.573 233.233 600.698 232.787 600.698 232.304V230.761C600.602 230.841 600.437 230.915 600.204 230.983C599.977 231.051 599.721 231.111 599.437 231.162C599.153 231.213 598.872 231.259 598.593 231.298C598.315 231.338 598.073 231.372 597.869 231.401C597.409 231.463 596.997 231.565 596.633 231.707C596.269 231.849 595.982 232.048 595.772 232.304C595.562 232.554 595.457 232.878 595.457 233.276C595.457 233.844 595.664 234.273 596.079 234.562C596.494 234.852 597.022 234.997 597.664 234.997ZM606.877 237V223.909H609.869V226.091H610.005C610.244 225.335 610.653 224.753 611.232 224.344C611.818 223.929 612.485 223.722 613.235 223.722C613.406 223.722 613.596 223.73 613.806 223.747C614.022 223.759 614.201 223.778 614.343 223.807V226.645C614.213 226.599 614.005 226.56 613.721 226.526C613.443 226.486 613.173 226.466 612.911 226.466C612.349 226.466 611.843 226.588 611.394 226.832C610.951 227.071 610.602 227.403 610.346 227.83C610.09 228.256 609.963 228.747 609.963 229.304V237H606.877ZM621.649 237.256C620.337 237.256 619.203 236.983 618.249 236.438C617.3 235.886 616.57 235.108 616.058 234.102C615.547 233.091 615.291 231.901 615.291 230.531C615.291 229.185 615.547 228.003 616.058 226.986C616.575 225.963 617.297 225.168 618.223 224.599C619.149 224.026 620.237 223.739 621.487 223.739C622.294 223.739 623.056 223.869 623.771 224.131C624.493 224.386 625.129 224.784 625.681 225.324C626.237 225.864 626.675 226.551 626.993 227.386C627.311 228.216 627.47 229.205 627.47 230.352V231.298H616.74V229.219H624.513C624.507 228.628 624.379 228.102 624.129 227.642C623.879 227.176 623.53 226.81 623.081 226.543C622.638 226.276 622.121 226.142 621.53 226.142C620.899 226.142 620.345 226.295 619.868 226.602C619.391 226.903 619.019 227.301 618.752 227.795C618.49 228.284 618.357 228.821 618.351 229.406V231.222C618.351 231.983 618.49 232.636 618.769 233.182C619.047 233.722 619.436 234.136 619.936 234.426C620.436 234.71 621.021 234.852 621.692 234.852C622.141 234.852 622.547 234.79 622.911 234.665C623.274 234.534 623.59 234.344 623.857 234.094C624.124 233.844 624.325 233.534 624.462 233.165L627.342 233.489C627.161 234.25 626.814 234.915 626.303 235.483C625.797 236.045 625.149 236.483 624.36 236.795C623.57 237.102 622.666 237.256 621.649 237.256ZM642.57 223.909V226.295H635.045V223.909H642.57ZM636.903 220.773H639.988V233.062C639.988 233.477 640.051 233.795 640.176 234.017C640.306 234.233 640.477 234.381 640.687 234.46C640.897 234.54 641.13 234.58 641.386 234.58C641.579 234.58 641.755 234.565 641.914 234.537C642.079 234.509 642.204 234.483 642.289 234.46L642.809 236.872C642.644 236.929 642.409 236.991 642.102 237.06C641.801 237.128 641.431 237.168 640.994 237.179C640.221 237.202 639.525 237.085 638.906 236.83C638.286 236.568 637.795 236.165 637.431 235.619C637.073 235.074 636.897 234.392 636.903 233.574V220.773ZM650.72 237.256C649.442 237.256 648.334 236.974 647.396 236.412C646.459 235.849 645.732 235.062 645.215 234.051C644.703 233.04 644.448 231.858 644.448 230.506C644.448 229.153 644.703 227.969 645.215 226.952C645.732 225.935 646.459 225.145 647.396 224.582C648.334 224.02 649.442 223.739 650.72 223.739C651.999 223.739 653.107 224.02 654.044 224.582C654.982 225.145 655.706 225.935 656.217 226.952C656.735 227.969 656.993 229.153 656.993 230.506C656.993 231.858 656.735 233.04 656.217 234.051C655.706 235.062 654.982 235.849 654.044 236.412C653.107 236.974 651.999 237.256 650.72 237.256ZM650.737 234.784C651.431 234.784 652.01 234.594 652.476 234.213C652.942 233.827 653.289 233.31 653.516 232.662C653.749 232.014 653.865 231.293 653.865 230.497C653.865 229.696 653.749 228.972 653.516 228.324C653.289 227.67 652.942 227.151 652.476 226.764C652.01 226.378 651.431 226.185 650.737 226.185C650.027 226.185 649.436 226.378 648.965 226.764C648.499 227.151 648.149 227.67 647.916 228.324C647.689 228.972 647.575 229.696 647.575 230.497C647.575 231.293 647.689 232.014 647.916 232.662C648.149 233.31 648.499 233.827 648.965 234.213C649.436 234.594 650.027 234.784 650.737 234.784ZM669.332 237.264C668.502 237.264 667.755 237.116 667.09 236.821C666.431 236.52 665.909 236.077 665.522 235.491C665.141 234.906 664.951 234.185 664.951 233.327C664.951 232.588 665.088 231.977 665.36 231.494C665.633 231.011 666.005 230.625 666.477 230.335C666.948 230.045 667.48 229.827 668.07 229.679C668.667 229.526 669.284 229.415 669.92 229.347C670.687 229.267 671.309 229.196 671.786 229.134C672.264 229.065 672.61 228.963 672.826 228.827C673.048 228.685 673.159 228.466 673.159 228.17V228.119C673.159 227.477 672.968 226.98 672.588 226.628C672.207 226.276 671.659 226.099 670.943 226.099C670.187 226.099 669.588 226.264 669.144 226.594C668.707 226.923 668.411 227.312 668.258 227.761L665.377 227.352C665.605 226.557 665.98 225.892 666.502 225.358C667.025 224.818 667.664 224.415 668.42 224.148C669.176 223.875 670.011 223.739 670.926 223.739C671.556 223.739 672.184 223.812 672.809 223.96C673.434 224.108 674.005 224.352 674.522 224.693C675.039 225.028 675.454 225.486 675.766 226.065C676.085 226.645 676.244 227.369 676.244 228.239V237H673.278V235.202H673.176C672.988 235.565 672.724 235.906 672.383 236.224C672.048 236.537 671.624 236.79 671.113 236.983C670.607 237.17 670.014 237.264 669.332 237.264ZM670.133 234.997C670.752 234.997 671.289 234.875 671.744 234.631C672.198 234.381 672.548 234.051 672.792 233.642C673.042 233.233 673.167 232.787 673.167 232.304V230.761C673.07 230.841 672.906 230.915 672.673 230.983C672.445 231.051 672.19 231.111 671.906 231.162C671.622 231.213 671.34 231.259 671.062 231.298C670.784 231.338 670.542 231.372 670.338 231.401C669.877 231.463 669.465 231.565 669.102 231.707C668.738 231.849 668.451 232.048 668.241 232.304C668.031 232.554 667.926 232.878 667.926 233.276C667.926 233.844 668.133 234.273 668.548 234.562C668.963 234.852 669.491 234.997 670.133 234.997ZM681.869 223.909L684.511 228.741L687.195 223.909H690.46L686.514 230.455L690.528 237H687.281L684.511 232.287L681.766 237H678.494L682.482 230.455L678.596 223.909H681.869ZM692.846 237V223.909H695.931V237H692.846ZM694.397 222.051C693.909 222.051 693.488 221.889 693.136 221.565C692.784 221.236 692.607 220.841 692.607 220.381C692.607 219.915 692.784 219.52 693.136 219.196C693.488 218.866 693.909 218.702 694.397 218.702C694.891 218.702 695.312 218.866 695.659 219.196C696.011 219.52 696.187 219.915 696.187 220.381C696.187 220.841 696.011 221.236 695.659 221.565C695.312 221.889 694.891 222.051 694.397 222.051ZM704.814 237.256C703.536 237.256 702.428 236.974 701.49 236.412C700.553 235.849 699.825 235.062 699.308 234.051C698.797 233.04 698.541 231.858 698.541 230.506C698.541 229.153 698.797 227.969 699.308 226.952C699.825 225.935 700.553 225.145 701.49 224.582C702.428 224.02 703.536 223.739 704.814 223.739C706.092 223.739 707.2 224.02 708.138 224.582C709.075 225.145 709.8 225.935 710.311 226.952C710.828 227.969 711.087 229.153 711.087 230.506C711.087 231.858 710.828 233.04 710.311 234.051C709.8 235.062 709.075 235.849 708.138 236.412C707.2 236.974 706.092 237.256 704.814 237.256ZM704.831 234.784C705.524 234.784 706.104 234.594 706.57 234.213C707.036 233.827 707.382 233.31 707.61 232.662C707.842 232.014 707.959 231.293 707.959 230.497C707.959 229.696 707.842 228.972 707.61 228.324C707.382 227.67 707.036 227.151 706.57 226.764C706.104 226.378 705.524 226.185 704.831 226.185C704.121 226.185 703.53 226.378 703.058 226.764C702.592 227.151 702.243 227.67 702.01 228.324C701.783 228.972 701.669 229.696 701.669 230.497C701.669 231.293 701.783 232.014 702.01 232.662C702.243 233.31 702.592 233.827 703.058 234.213C703.53 234.594 704.121 234.784 704.831 234.784ZM713.705 237V223.909H716.654V226.134H716.808C717.08 225.384 717.532 224.798 718.163 224.378C718.793 223.952 719.546 223.739 720.421 223.739C721.308 223.739 722.055 223.955 722.663 224.386C723.276 224.812 723.708 225.395 723.958 226.134H724.095C724.384 225.406 724.873 224.827 725.561 224.395C726.254 223.957 727.075 223.739 728.024 223.739C729.228 223.739 730.211 224.119 730.972 224.881C731.734 225.642 732.114 226.753 732.114 228.213V237H729.021V228.69C729.021 227.878 728.805 227.284 728.373 226.909C727.941 226.528 727.413 226.338 726.788 226.338C726.043 226.338 725.461 226.571 725.041 227.037C724.626 227.497 724.418 228.097 724.418 228.835V237H721.393V228.562C721.393 227.886 721.188 227.347 720.779 226.943C720.376 226.54 719.847 226.338 719.194 226.338C718.751 226.338 718.347 226.452 717.984 226.679C717.62 226.901 717.33 227.216 717.114 227.625C716.899 228.028 716.791 228.5 716.791 229.04V237H713.705Z" fill="#ABB3BF"/>
<path d="M88.5123 347.348L79.947 332.539C79.5543 331.859 78.5864 331.302 77.7963 331.302H72.4488C71.2059 331.302 70.6963 330.427 71.3163 329.358L74.2488 324.301C74.4815 323.9 74.481 323.406 74.2475 323.005C74.0139 322.604 73.5828 322.357 73.1163 322.357H65.6565C64.8663 322.357 63.8963 322.913 63.5008 323.592L49.0052 348.488C48.6098 349.167 48.6095 350.279 49.0047 350.958L52.7345 357.37C53.3559 358.439 54.3751 358.44 54.9992 357.373L57.9137 352.391C58.5378 351.324 59.557 351.326 60.1784 352.394L62.8206 356.936C63.2157 357.616 64.1854 358.171 64.9756 358.171H82.2135C83.0038 358.171 83.9735 357.616 84.3686 356.936L88.508 349.82C88.9031 349.141 88.905 348.028 88.5123 347.348ZM76.9449 346.635C77.5624 347.706 77.0508 348.582 75.8079 348.582H62.3996C61.1567 348.582 60.6482 347.707 61.2696 346.639L67.9791 335.104C68.6005 334.036 69.6174 334.036 70.2388 335.104L76.9449 346.635Z" fill="white"/>
</g>
<rect x="0.786865" y="0.5" width="1065.67" height="399" stroke="white" stroke-opacity="0.1"/>
<defs>
<radialGradient id="paint0_radial_201_340" cx="0" cy="0" r="1" gradientUnits="userSpaceOnUse" gradientTransform="translate(534.5 134.358) rotate(90) scale(343.561 585.061)">
<stop stop-color="#D9D9D9"/>
<stop offset="1" stop-color="#D9D9D9" stop-opacity="0"/>
</radialGradient>
<radialGradient id="paint1_radial_201_340" cx="0" cy="0" r="1" gradientUnits="userSpaceOnUse" gradientTransform="translate(534.5 195.949) rotate(90) scale(281.97 480.176)">
<stop stop-color="#0A3FFF"/>
<stop offset="1" stop-color="#B591F9" stop-opacity="0"/>
</radialGradient>
<linearGradient id="paint2_linear_201_340" x1="323.332" y1="117.976" x2="692.355" y2="151.75" gradientUnits="userSpaceOnUse">
<stop stop-color="#BE99FF"/>
<stop offset="0.583932" stop-color="#8CBDFF"/>
<stop offset="1" stop-color="#6D7CFF"/>
</linearGradient>
<clipPath id="clip0_201_340">
<rect x="0.286865" width="1066.67" height="400" fill="white"/>
</clipPath>
<clipPath id="clip1_201_340">
<rect width="1069" height="468" fill="white"/>
</clipPath>
</defs>
</svg>
